<?xml version="1.0" encoding="utf-8"?>
<!-- Generator: Adobe Illustrator 26.3.1, SVG Export Plug-In . SVG Version: 6.00 Build 0)  -->
<svg version="1.1" xmlns="http://www.w3.org/2000/svg" xmlns:xlink="http://www.w3.org/1999/xlink" x="0px" y="0px"
	 viewBox="0 0 1392 720" style="enable-background:new 0 0 1392 720;" xml:space="preserve">
<style type="text/css">
	.st0{display:none;}
	.st1{fill:#88C4E9;}
	.st2{fill:#6BABDA;}
	
		.st3{clip-path:url(#XMLID_00000049217611420647650590000011816985616883286421_);fill:none;stroke:#6BABDA;stroke-width:9;stroke-miterlimit:10;}
	.st4{fill:#632E86;}
	.st5{fill:#1B98D1;}
	.st6{fill:#5FBB4E;}
	.st7{fill:none;stroke:#1B98D1;stroke-width:9;stroke-miterlimit:50;}
	.st8{fill:#FAF5AB;}
	.st9{fill:#EF7135;}
	.st10{fill:#EC4141;}
	.st11{fill:none;stroke:#1B98D1;stroke-width:9;stroke-miterlimit:40;}
	.st12{fill:#9BDBF5;}
	
		.st13{clip-path:url(#XMLID_00000007416225159386430260000013696069203342501521_);fill:none;stroke:#6BABDA;stroke-width:9;stroke-miterlimit:10;}
	.st14{clip-path:url(#XMLID_00000052068498338781276590000014256337387718302103_);}
	
		.st15{clip-path:url(#XMLID_00000008148090647536259910000007718931158272834217_);fill:none;stroke:#6BABDA;stroke-width:9;stroke-miterlimit:10;}
	.st16{fill:#9BDBF5;stroke:#6BABDA;stroke-width:9;stroke-miterlimit:10;}
	.st17{fill:none;}
	.st18{filter:url(#Adobe_OpacityMaskFilter);}
	.st19{fill:#FFFFFF;}
	.st20{mask:url(#XMLID_00000023268677077233652280000015810252040506048160_);}
	
		.st21{clip-path:url(#XMLID_00000131330906952879261300000017729715274097216646_);fill:url(#XMLID_00000088103428758317908520000011796300705474901904_);}
	.st22{clip-path:url(#XMLID_00000131330906952879261300000017729715274097216646_);fill:#D9539D;}
	.st23{clip-path:url(#XMLID_00000131330906952879261300000017729715274097216646_);fill:#FCB6DF;}
	.st24{fill:#040000;}
	.st25{filter:url(#Adobe_OpacityMaskFilter_00000109012338917056268810000004359355134567163301_);}
	.st26{mask:url(#XMLID_00000138565323492194520540000003976561531450875017_);}
	.st27{clip-path:url(#XMLID_00000006676342960718647610000017350234596584486035_);}
	.st28{fill:url(#XMLID_00000018960129433190638100000005016493167895209088_);}
	.st29{fill:#D9539D;}
	.st30{fill:#FCB6DF;}
	.st31{clip-path:url(#XMLID_00000049910143393056377420000006654510137706323644_);}
	.st32{fill:none;stroke:#1B98D1;stroke-width:9;stroke-miterlimit:10;}
	.st33{fill:#FDE85F;}
	
		.st34{clip-path:url(#XMLID_00000070829216630110020000000001249965479966324115_);fill:none;stroke:#6BABDA;stroke-width:9;stroke-miterlimit:40;}
</style>
<g id="Layer_1" class="st0">
</g>
<g id="Rainbow_Dash">
	<g id="XMLID_82_">
		<path id="XMLID_150_" class="st1" d="M418.5,552c-82.2,48-221.4,49.5-292.6,38.6c-40-6.1-50.9-21-59.9-51
			c-4.6-15.3-7.3-44.3-1-63.9c6.9-21.4,20.2-24.3,54.7-9.2c36.9,16.2,155.4,45.8,273,32.8"/>
		<path id="XMLID_149_" class="st2" d="M418.5,552c0,0-0.6,0.5-1.8,1.3c-1.2,0.9-3,2.2-5.5,3.8c-4.9,3.2-12.3,7.6-22.2,12.4
			c-9.9,4.7-22.3,9.9-37,13.8c-7.4,2-15.2,4-23.6,5.7c-8.4,1.7-17.2,3.3-26.5,4.7c-18.5,2.8-38.7,4.9-60.1,6
			c-21.4,1.1-44,1.2-67.4,0c-11.7-0.6-23.5-1.5-35.5-2.9c-6-0.7-12-1.5-18.1-2.6c-6.2-1.1-12.3-2.5-18.4-4.7c-6-2.1-12.1-5-17.4-9.1
			c-5.4-4.1-9.9-9.3-13.3-15c-3.4-5.7-5.8-11.7-7.9-17.8c-0.5-1.5-1-3-1.5-4.5c-0.5-1.5-0.9-3-1.4-4.6c-0.9-3.2-1.5-6.3-2.1-9.5
			c-1.1-6.3-1.8-12.6-2.1-19c-0.3-6.4-0.2-12.8,0.4-19.2c0.3-3.2,0.8-6.4,1.5-9.6c0.3-1.6,0.7-3.2,1.2-4.8c0.1-0.4,0.2-0.8,0.3-1.2
			l0.4-1.3c0.3-0.7,0.5-1.4,0.8-2.2c0.6-1.6,1.2-3.2,2-4.7c0.7-1.5,1.6-3.1,2.7-4.6c2-3,4.9-5.7,8.3-7.5c3.4-1.8,7.2-2.5,10.7-2.7
			c3.5-0.1,6.8,0.3,10,0.9c6.4,1.3,12.3,3.3,18,5.5c1.4,0.6,2.8,1.1,4.2,1.7c1.4,0.6,2.7,1.2,4.1,1.8c1.4,0.6,2.7,1.2,4.1,1.7
			c1.3,0.5,2.6,1,4,1.5c5.4,2,10.9,3.8,16.4,5.5c11,3.4,21.9,6.3,32.7,8.8c10.8,2.5,21.4,4.7,31.8,6.7c10.4,1.9,20.6,3.5,30.4,4.9
			c9.9,1.4,19.4,2.5,28.6,3.4c9.2,0.9,18,1.5,26.4,2.1c4.2,0.2,8.3,0.5,12.3,0.6c4,0.1,7.8,0.3,11.6,0.3c15,0.3,28,0.9,38.8,1.1
			c10.8,0.2,19.3,0.2,25.1,0.2c5.8,0,8.9,0.1,8.9,0.1s-3,0.7-8.8,1.8c-5.7,1.1-14.2,2.5-25,3.7c-10.8,1.1-24.1,2.3-39.3,1.9
			c-7.6-0.2-15.7-0.4-24.2-0.9c-8.5-0.5-17.4-1.2-26.7-2.1c-9.3-0.9-19-2-28.9-3.4c-10-1.4-20.3-3-30.8-4.9
			c-10.5-1.9-21.3-4.2-32.3-6.7c-11-2.6-22.1-5.5-33.3-9c-5.6-1.7-11.2-3.6-16.9-5.7c-1.4-0.5-2.9-1.1-4.3-1.7
			c-1.4-0.6-2.7-1.1-4.1-1.7c-1.4-0.6-2.7-1.2-4.1-1.7c-1.3-0.6-2.7-1.1-4.1-1.6c-5.4-2.1-10.9-4-16.4-5c-2.7-0.5-5.4-0.8-8-0.7
			c-2.5,0.1-4.9,0.6-6.9,1.7c-2,1-3.7,2.6-5.1,4.7c-1.4,2-2.6,4.6-3.5,7.1c-0.2,0.6-0.5,1.4-0.7,2.1l-0.3,0.9
			c-0.1,0.3-0.2,0.7-0.3,1c-0.4,1.4-0.7,2.8-1,4.2c-0.6,2.8-1,5.7-1.3,8.7c-0.6,5.9-0.7,11.9-0.4,17.9c0.3,6,0.9,12,1.9,17.9
			c0.5,2.9,1.1,5.9,1.9,8.7c0.4,1.4,0.8,2.8,1.3,4.3c0.5,1.4,0.9,2.9,1.4,4.3c1.9,5.7,4.2,11.2,7.1,16c2.9,4.9,6.6,9.1,11,12.5
			c4.4,3.4,9.6,5.8,15,7.8c5.4,1.9,11.2,3.2,16.9,4.3c5.8,1,11.8,1.8,17.6,2.5c11.7,1.4,23.4,2.3,34.9,2.9c23,1.2,45.3,1,66.4,0
			c21.1-1.1,41-3.1,59.2-5.9c9.1-1.4,17.8-3,26-4.7c8.2-1.7,16-3.4,23.2-5.4c14.4-3.9,26.9-7.3,37.1-10.7
			c10.2-3.4,18.1-6.4,23.5-8.6c2.7-1.1,4.7-2,6.1-2.6C417.8,552.3,418.5,552,418.5,552z"/>
	</g>
	<g id="XMLID_98_">
		<path id="XMLID_107_" class="st1" d="M914,619c-1-27.4-9.4-34.9-26.5-43.2c-32.5-16.7-76.3-55.6-99.4-88.3
			c-15-21.3-17.6-21.6-31.8-18c-13.4,3.5-33.9,17.2-44,32.9l-134,78.3c57.4,36.4,124.3,35.2,167.6-3.3c38.3,66.6,68,93.2,97,110.7
			c16.1,9.7,31.8,14,46.2,0.7C906.2,672.8,914.8,640.2,914,619z"/>
		<g id="XMLID_84_">
			<path id="XMLID_147_" class="st2" d="M578.3,580.7c0,0,0.8,0.3,2.1,0.9c0.7,0.3,1.5,0.6,2.6,1.1c1,0.4,2.1,0.9,3.4,1.4
				c1.3,0.5,2.7,1.1,4.2,1.7c1.5,0.6,3.2,1.2,5,1.9c1.8,0.7,3.7,1.4,5.7,2.1c1,0.4,2,0.7,3.1,1.1c1.1,0.4,2.1,0.7,3.2,1.1
				c1.1,0.4,2.2,0.7,3.4,1.1c1.2,0.3,2.3,0.7,3.5,1.1c2.4,0.8,4.9,1.3,7.5,2c1.3,0.4,2.6,0.7,3.9,1.1c1.3,0.4,2.6,0.7,4,1.1
				c2.7,0.6,5.4,1.3,8.3,1.8c5.6,1.1,11.6,1.8,17.6,2.3c6,0.5,12.1,0.4,18.2,0c6.1-0.4,12.2-1.3,18-2.6c2.9-0.6,5.8-1.4,8.6-2.2
				c2.8-0.9,5.6-1.8,8.2-2.8c2.7-1,5.2-2.2,7.7-3.3c1.3-0.5,2.5-1.1,3.7-1.7c0.6-0.3,1.2-0.6,1.8-0.8c0.6-0.3,1.2-0.6,1.8-0.9
				c1.2-0.6,2.3-1.2,3.4-1.8c1.1-0.6,2.2-1.3,3.3-1.9c0.5-0.3,1.1-0.6,1.6-0.9c0.5-0.3,1-0.7,1.5-1c1-0.7,2-1.3,3-1.9
				c1.9-1.3,3.7-2.6,5.5-3.7c1.7-1.3,3.3-2.5,4.8-3.6c1.5-1.2,2.8-2.3,4.1-3.4c1.3-1,2.4-2.1,3.4-3c2.1-1.8,3.7-3.3,4.8-4.3
				c1.1-1,1.7-1.5,1.7-1.5s-0.4,0.7-1.2,2c-0.4,0.6-0.9,1.4-1.4,2.4c-0.3,0.5-0.6,1-0.9,1.5c-0.4,0.5-0.7,1.1-1.1,1.6
				c-0.8,1.1-1.7,2.5-2.7,3.8c-1.1,1.3-2.2,2.8-3.5,4.3c-1.3,1.5-2.8,3-4.3,4.6c-0.8,0.8-1.6,1.6-2.5,2.4c-0.9,0.8-1.7,1.7-2.7,2.4
				c-0.9,0.8-1.9,1.6-2.9,2.4c-0.5,0.4-1,0.8-1.5,1.2c-0.5,0.4-1.1,0.8-1.6,1.1c-1.1,0.8-2.2,1.5-3.3,2.3c-1.2,0.7-2.3,1.5-3.5,2.2
				c-0.6,0.4-1.2,0.8-1.8,1.1c-0.6,0.4-1.2,0.7-1.9,1.1c-1.3,0.7-2.5,1.4-3.8,2.1c-2.7,1.2-5.5,2.5-8.3,3.5
				c-2.9,1.2-5.8,2.1-8.9,3.1c-3,0.8-6.1,1.7-9.3,2.4c-6.3,1.4-12.8,2.4-19.3,2.8c-6.5,0.4-13.1,0.5-19.5,0
				c-6.4-0.5-12.7-1.2-18.7-2.4c-3-0.5-5.9-1.3-8.8-1.9c-1.4-0.4-2.8-0.8-4.2-1.1c-1.4-0.4-2.8-0.7-4.1-1.2c-2.6-1-5.2-2-7.5-3
				c-1.2-0.5-2.4-1-3.5-1.5c-1.2-0.5-2.3-1.1-3.3-1.6c-1.1-0.5-2.2-1.1-3.2-1.6c-1-0.6-2-1.1-3-1.7c-1-0.5-1.9-1.1-2.8-1.6
				c-0.9-0.5-1.7-1.1-2.6-1.6c-1.7-1.1-3.2-2-4.6-3c-1.4-1-2.6-1.9-3.8-2.7c-2.3-1.7-3.9-3.1-5.1-4.1
				C578.9,581.2,578.3,580.7,578.3,580.7z"/>
		</g>
		<g id="XMLID_85_">
			<defs>
				<polygon id="XMLID_89_" points="697.6,489.2 722.5,515.5 752.6,570.9 739.2,582.9 726.9,619.4 879,755.5 933.5,696.8 
					951.6,577.5 777.8,433.2 				"/>
			</defs>
			<clipPath id="XMLID_00000158026007812993391410000009941105347918085823_">
				<use xlink:href="#XMLID_89_"  style="overflow:visible;"/>
			</clipPath>
			
				<path id="XMLID_90_" style="clip-path:url(#XMLID_00000158026007812993391410000009941105347918085823_);fill:none;stroke:#6BABDA;stroke-width:9;stroke-miterlimit:10;" d="
				M712.3,502.4c10.1-15.6,30.6-29.4,44-32.9c14.2-3.7,16.9-3.3,31.8,18c23.1,32.8,66.8,71.6,99.4,88.3
				c17.1,8.4,25.5,15.8,26.5,43.2c0.8,21.2-7.8,53.8-25,69.8c-14.3,13.3-30.1,9-46.2-0.7c-34.1-20.5-69.1-53.6-117.8-149.3"/>
		</g>
	</g>
	<g id="Wing__x28_Right_x29__x29_">
		<path id="XMLID_136_" class="st1" d="M496.7,499.3c154-78.7,124.8-148.6,78.8-128.3c47.7-59,75.5-99.2,87.9-139.4
			c10.9-35.5-11.4-39.4-26-34.4c-18.3,6.2-36.2,19.3-63.3,58.5c36.7-85.7,60.1-143.5,68.7-177.8C654,32.3,631.1,30.1,602.3,53
			c-30.7,24.5-45,58.1-59.3,105.8c19.7-140.7-4.8-159.7-33.3-122.3c-28.4,37.2-40.3,86.3-40.4,160c-0.1,103.2,17.1,185.8-10.9,278.5
			"/>
		<path id="XMLID_135_" class="st2" d="M496.7,499.3c1.9-1.3,3.8-2.5,5.7-3.7l5.7-3.7c3.8-2.5,7.5-4.9,11.3-7.4
			c3.7-2.5,7.5-5,11.1-7.5c1.8-1.3,3.7-2.5,5.5-3.8c1.8-1.3,3.6-2.6,5.5-3.9c1.8-1.3,3.6-2.6,5.4-3.9c1.8-1.3,3.6-2.7,5.3-4
			c3.5-2.7,7-5.5,10.4-8.3c1.7-1.5,3.4-2.9,5-4.3c0.8-0.7,1.7-1.4,2.5-2.2l2.5-2.2c1.7-1.4,3.2-3,4.9-4.5c1.6-1.5,3.2-3,4.7-4.6
			c6.1-6.2,11.8-13,16.4-20.2c2.3-3.6,4.3-7.4,6-11.2c0.8-1.9,1.5-3.9,2-5.8c0.6-2,1-3.9,1.2-5.9c0.5-3.9,0.1-7.8-1.2-11
			c-1.3-3.3-3.7-5.8-6.8-7.4c-3.1-1.6-6.9-2.1-10.7-1.8c-1.9,0.2-3.9,0.5-5.8,1c-1.9,0.5-3.8,1.2-5.7,2l-16.7,7.2l11.4-14.1l0,0
			c16.3-20.2,32.3-40.5,47-61.7c7.3-10.6,14.4-21.4,20.7-32.5c6.3-11.1,11.9-22.6,16.3-34.5c1.1-3,2.1-6,3-9
			c0.2-0.7,0.5-1.6,0.7-2.2c0.2-0.7,0.4-1.4,0.6-2.2c0.4-1.5,0.7-3,0.9-4.4c0.5-2.9,0.7-5.9,0.5-8.6c-0.2-2.7-0.8-5.3-2-7.3
			c-1.2-2-2.9-3.5-5.1-4.5c-2.2-1-4.9-1.4-7.6-1.3c-1.4,0-2.8,0.2-4.1,0.5c-0.7,0.1-1.4,0.3-2.1,0.5c-0.3,0.1-0.7,0.2-1,0.3
			l-0.9,0.3l-2.3,0.8l-1.1,0.4l-1,0.4l-2,0.9l-2.1,1c-5.5,2.7-10.6,6.1-15.4,10c-4.8,3.9-9.3,8.3-13.6,13
			c-4.2,4.7-8.4,9.6-12.2,14.7c-2,2.5-3.8,5.1-5.8,7.7c-1.9,2.6-3.7,5.2-5.6,7.8l-24.2,34l16.4-38.3c6.5-15.1,12.9-30.2,19.3-45.4
			l9.5-22.7c3.1-7.6,6.2-15.2,9.3-22.8c1.5-3.8,3.1-7.6,4.6-11.4c1.5-3.8,3-7.6,4.5-11.5c3-7.6,5.8-15.3,8.6-23
			c2.7-7.7,5.4-15.4,7.9-23.2c1.2-3.9,2.4-7.8,3.5-11.7l1.5-5.8c0.5-2,0.9-3.9,1.3-5.8c0.7-3.9,1.3-7.7,1.4-11.5
			c0.1-3.7-0.2-7.5-1.2-10.4c-0.5-1.5-1.3-2.7-2.2-3.5c-0.9-0.8-1.9-1.4-3.2-1.7c-2.6-0.6-6.2,0-9.6,1.2c-6.9,2.5-13.6,7-19.7,11.9
			l-2.4,2c-0.8,0.7-1.5,1.3-2.2,1.9c-0.7,0.6-1.5,1.3-2.2,2c-0.7,0.7-1.5,1.3-2.2,2c-2.8,2.8-5.6,5.6-8.1,8.7
			c-5.1,6.1-9.7,12.6-13.8,19.5c-4,6.9-7.6,14.1-10.8,21.5c-3.2,7.4-6.1,15-8.7,22.7c-2.7,7.7-5.1,15.5-7.5,23.3l-16.7,55.2
			l7.9-57.1l0,0c1.8-12.8,3.4-25.6,4.6-38.5c1.2-12.8,2.1-25.7,2.4-38.5c0.1-6.4,0.1-12.8-0.2-19.2c-0.3-6.3-0.9-12.7-2.1-18.7
			c-0.6-3-1.3-6-2.3-8.8c-1-2.8-2.2-5.4-3.7-7.3c-0.8-0.9-1.6-1.7-2.4-2.2c-0.8-0.5-1.6-0.7-2.5-0.7c-1.8-0.1-4.2,0.8-6.5,2.3
			c-4.6,3-8.9,7.8-12.6,12.6c-1,1.3-2,2.6-2.9,3.9c-0.9,1.3-1.8,2.5-2.7,3.8c-1.8,2.6-3.4,5.3-5,8c-6.4,10.9-11.5,22.6-15.4,34.7
			c-3.9,12.1-6.7,24.6-8.7,37.2c-2,12.6-3.2,25.4-4,38.3c-0.7,12.9-0.9,25.7-0.8,38.7c0.1,12.9,0.4,25.9,0.9,38.8
			c1,25.9,2.6,51.8,3.5,77.9c0.2,6.5,0.4,13,0.5,19.6c0.1,6.5,0.1,13.1,0,19.6c-0.2,13.1-0.6,26.2-1.9,39.2c-1.3,13-3.5,26-6.5,38.8
			c-3.1,12.7-6.9,25.3-12.1,37.3c2.4-12.8,4.6-25.6,6.2-38.4c1.7-12.8,2.9-25.6,3.8-38.4c0.8-12.8,1.5-25.7,1.6-38.6
			c0.1-6.4-0.1-12.9-0.1-19.4c-0.1-6.5-0.3-12.9-0.5-19.4c-0.9-25.9-2.5-51.8-3.5-77.8c-0.5-13-0.8-26-0.9-39.1
			c-0.1-13,0.1-26.1,0.8-39.2c0.7-13.1,2-26.2,4.1-39.2c2.1-13,4.9-26,9-38.6c4.1-12.6,9.4-24.9,16.2-36.4c1.7-2.9,3.5-5.7,5.3-8.5
			c0.9-1.4,1.9-2.8,2.9-4.2c1-1.4,1.9-2.6,2.9-3.9c2.1-2.8,4.3-5.3,6.7-7.9c2.4-2.5,5.1-4.9,8.2-6.9c1.6-1,3.3-1.9,5.2-2.6
			c1.9-0.7,4.1-1.2,6.5-1.1c2.3,0.1,4.8,0.8,6.7,2c2,1.2,3.6,2.7,4.8,4.3c2.5,3.2,4,6.6,5.2,9.9c1.2,3.4,2,6.7,2.6,10.1
			c1.3,6.7,1.9,13.3,2.2,20c0.3,6.6,0.4,13.2,0.3,19.8c-0.3,13.1-1.2,26.2-2.4,39.2c-1.3,13-2.8,26-4.6,38.9l0,0l-8.8-1.9
			c2.4-7.9,4.9-15.8,7.6-23.7c2.7-7.8,5.6-15.7,9-23.3c3.3-7.7,7-15.2,11.3-22.5c4.3-7.3,9.2-14.3,14.7-20.8
			c2.7-3.2,5.7-6.3,8.7-9.3c0.8-0.7,1.5-1.5,2.3-2.2c0.8-0.7,1.6-1.4,2.4-2.1c0.8-0.7,1.6-1.4,2.4-2.1l2.4-2
			c3.4-2.7,6.8-5.2,10.5-7.5c3.7-2.3,7.6-4.3,11.9-5.9c2.2-0.8,4.4-1.4,6.8-1.7c2.4-0.3,5-0.4,7.7,0.2c2.7,0.6,5.5,2,7.5,4
			c2.1,2,3.4,4.5,4.3,6.9c1.7,4.8,1.9,9.4,1.8,13.9c-0.2,4.4-0.8,8.7-1.6,12.9c-0.4,2.1-0.9,4.3-1.4,6.2l-1.6,6.1
			c-1.1,4-2.3,8-3.5,12c-2.5,7.9-5.2,15.7-8,23.5c-2.8,7.8-5.7,15.5-8.7,23.2c-1.5,3.9-3,7.7-4.5,11.5c-1.5,3.8-3,7.7-4.6,11.5
			c-3.1,7.6-6.2,15.3-9.3,22.9l-9.5,22.8c-6.4,15.2-12.8,30.3-19.3,45.4l-7.8-4.3c1.9-2.7,3.8-5.4,5.7-8c2-2.6,3.9-5.3,5.9-7.9
			c4-5.2,8.3-10.3,12.7-15.2c4.5-4.9,9.3-9.6,14.5-13.9c5.2-4.3,10.9-8.2,17.1-11.2l2.3-1.1l2.4-1l1.2-0.5l1.1-0.4l2.3-0.8l0.7-0.3
			l0.7-0.2c0.4-0.1,0.9-0.3,1.3-0.4c0.9-0.2,1.8-0.4,2.7-0.6c1.8-0.3,3.7-0.5,5.5-0.6c3.7-0.1,7.7,0.4,11.4,2
			c1.9,0.8,3.7,1.9,5.3,3.3c1.6,1.4,3,3.1,4,4.8c2.1,3.6,3,7.5,3.3,11.2c0.3,3.7-0.1,7.3-0.6,10.8c-0.3,1.7-0.7,3.4-1.1,5.1
			c-0.2,0.8-0.4,1.7-0.7,2.5c-0.2,0.9-0.4,1.5-0.7,2.4c-1,3.2-2,6.3-3.2,9.4c-4.6,12.5-10.4,24.4-16.9,35.9
			c-6.5,11.5-13.6,22.5-21.1,33.2c-15,21.5-31.1,41.9-47.4,62.2l0,0l-5.3-6.9c2.3-1,4.6-1.8,7-2.5c2.4-0.6,4.9-1.1,7.5-1.3
			c5.1-0.4,10.5,0.2,15.5,2.7c2.5,1.2,4.8,2.9,6.6,5c1.9,2.1,3.4,4.5,4.4,7c2.1,5.1,2.4,10.5,1.8,15.5c-0.3,2.5-0.8,5-1.5,7.3
			c-0.6,2.4-1.5,4.6-2.4,6.9c-1.9,4.4-4.2,8.6-6.7,12.6c-2.5,4-5.3,7.7-8.3,11.3c-2.9,3.6-6.1,7-9.3,10.3c-1.6,1.7-3.3,3.2-4.9,4.9
			c-1.7,1.6-3.3,3.1-5.1,4.7c-1.7,1.5-3.4,3-5.2,4.5c-1.8,1.4-3.6,2.8-5.4,4.2c-3.7,2.7-7.3,5.4-11.1,8c-1.9,1.3-3.8,2.6-5.7,3.8
			c-1.9,1.2-3.8,2.5-5.7,3.7c-3.9,2.4-7.8,4.7-11.8,6.9c-2,1.1-4,2.2-6,3.2l-3,1.6l-3,1.5c-2,1-4.1,2-6.1,2.9
			c-2.1,0.9-4.1,1.9-6.2,2.8C505.1,496,500.9,497.7,496.7,499.3z"/>
	</g>
	<g id="XMLID_111_">
		<path id="XMLID_113_" class="st4" d="M269.4,112.7c84.6,10.8,193.1,66.8,229.1,95c-31.5-15.2-69.3-23.2-102-20.7
			C435.1,207,522,258.9,570,306c-36.8-14.5-95.5-25.5-128.5-16.5c34,12.5,85,38.9,115,63.5c-125-20.5-65.5,57.5-140.5,87
			C315,354.6,261.5,247.6,269.4,112.7z"/>
		<path id="XMLID_114_" class="st5" d="M311,313.3c-31.3-58.9-46-125.5-41.6-200.7c84.6,10.8,193.1,66.8,229.1,95
			c-31.5-15.2-69.3-23.2-102-20.7C435.1,207,522,258.9,570,306c-25.8-10.2-62.4-18.6-93.3-19.7C426.3,267.3,363.3,279,311,313.3z"/>
		<path id="XMLID_112_" class="st6" d="M272,191.3c-3.3-25.1-4.2-51.3-2.6-78.7c84.6,10.8,193.1,66.8,229.1,95
			c-31.5-15.2-69.3-23.2-102-20.7c17.7,9.2,45.5,25,75,44C402.2,197.5,331,190.5,272,191.3z"/>
		<path id="XMLID_108_" class="st7" d="M269.4,112.7c84.6,10.8,193.1,66.8,229.1,95c-31.5-15.2-69.3-23.2-102-20.7
			C435.1,207,522,258.9,570,306c-36.8-14.5-95.5-25.5-128.5-16.5c34,12.5,85,38.9,115,63.5c-125-20.5-65.5,57.5-140.5,87"/>
	</g>
	<g id="XMLID_123_">
		<path id="XMLID_115_" class="st4" d="M615.3,400.7c54.8-12.9,107.4-60.1,160.2-98.7c46.5-34,114.5-49.8,173.2-23.2
			c-24.8,1-42.8,5.8-60.8,18.2c50.7-2.1,103.4,17,160.8,42.8c57.7,26,118.5,59.2,182.2,75.5c-31,5-61.1,3.4-94.8-3.2
			c47.2,34.2,139.1,66.9,229.2,75.2c-33.5,18.2-82.2,20-114.2,19.2l38.8,17.2c-56,12-116.3,10-176-1.8c25.1,20.1,56.2,40,88.8,54.8
			c-67.5,4.2-121.7-27-202.2-58.5c20.2,14.5,35.5,27,51.5,43.8c-71.3-35.8-159.3-67-250-89.7c-62.6-15.7-126.3-37.3-186.7-33
			L615.3,400.7z"/>
		<path id="XMLID_119_" class="st5" d="M615.3,400.7c36.1-8.5,71.3-31.9,106.2-58c60.4-28,104.8-33.8,139.1-31
			c37,3,99.3,17,159,50.7c33.8,19.1,117.2,51.6,147.6,54.4c0,0-36.5-6.4-31-4.8c47.2,34.2,139.1,66.9,229.2,75.2
			c-33.5,18.2-82.2,20-114.2,19.2l38.8,17.2c-56,12-116.3,10-176-1.8c25.1,20.1,56.2,40,88.8,54.8c-67.5,4.2-121.7-27-202.2-58.5
			c20.2,14.5,35.5,27,51.5,43.8c-71.3-35.8-159.3-67-250-89.7c-62.6-15.7-126.3-37.3-186.7-33L615.3,400.7z"/>
		<path id="XMLID_120_" class="st6" d="M615.3,400.7c25.4-6,50.3-19.3,75-35.8C810,308,904.7,333,1041,404
			c92.7,48.3,119.8,94.5,225.5,102.6c-5.4,0-10.5,0-15.3-0.1l38.8,17.2c-56,12-116.3,10-176-1.8c25.1,20.1,56.2,40,88.8,54.8
			c-67.5,4.2-121.7-27-202.2-58.5c20.2,14.5,35.5,27,51.5,43.8c-71.3-35.8-159.3-67-250-89.7c-62.6-15.7-126.3-37.3-186.7-33
			L615.3,400.7z"/>
		<path id="XMLID_121_" class="st8" d="M615.3,400.7c14.3-3.4,28.5-9.1,42.6-16.4C784.3,353,897.2,358.1,1044,439
			c87.7,48.3,136.8,74,223.5,88.8c-49.5,7.2-101.7,4.4-153.5-5.8c25.1,20.1,56.2,40,88.8,54.8c-67.5,4.2-121.7-27-202.2-58.5
			c20.2,14.5,35.5,27,51.5,43.8c-71.3-35.8-159.3-67-250-89.7c-62.6-15.7-126.3-37.3-186.7-33L615.3,400.7z"/>
		<path id="XMLID_122_" class="st9" d="M1241.4,530.7c-41.6,3.1-84.6-0.3-127.4-8.7c25.1,20.1,56.2,40,88.8,54.8
			c-67.5,4.2-121.7-27-202.2-58.5c20.2,14.5,35.5,27,51.5,43.8c-71.3-35.8-159.3-67-250-89.7c-62.6-15.7-126.3-37.3-186.7-33V416
			c78-22.4,189.6-19.6,268.2-2c76,17,92.3,28,143.5,50C1096,493.7,1165.5,521.5,1241.4,530.7z"/>
		<path id="XMLID_128_" class="st10" d="M1114,522c25.1,20.1,56.2,40,88.8,54.8c-67.5,4.2-121.7-27-202.2-58.5
			c20.2,14.5,35.5,27,51.5,43.8c-71.3-35.8-159.3-67-250-89.7c-62.6-15.7-126.3-37.3-186.7-33C772.5,415.5,978.5,470.5,1114,522z"/>
		<path id="XMLID_106_" class="st11" d="M615.3,400.7c54.8-12.9,107.4-60.1,160.2-98.7c46.5-34,114.5-49.8,173.2-23.2
			c-24.8,1-42.8,5.8-60.8,18.2c50.7-2.1,103.4,17,160.8,42.8c57.7,26,118.5,59.2,182.2,75.5c-31,5-61.1,3.4-94.8-3.2
			c47.2,34.2,139.1,66.9,229.2,75.2c-33.5,18.2-82.2,20-114.2,19.2l38.8,17.2c-56,12-116.3,10-176-1.8c25.1,20.1,56.2,40,88.8,54.8
			c-67.5,4.2-121.7-27-202.2-58.5c20.2,14.5,35.5,27,51.5,43.8c-71.3-35.8-159.3-67-250-89.7c-62.6-15.7-126.3-37.3-186.7-33"/>
	</g>
	<g id="XMLID_81_">
		<path id="XMLID_94_" class="st12" d="M955.4,542.3c-5.8-26.8-18.7-32.1-37.4-35.9c-35.7-8-89.8-35.1-120.3-61
			c-19.8-16.8-22.5-16.5-35.3-9.4c-9.5,5.3-21.5,17.7-29.1,31.2c-27.9-38.3-58.8-99.8-138.2-71.2c-68.7,24.8-96.5,45.7-160.4,34.6
			c-25.6-20.5-47.4-48-63.6-72.3l-133,65c48.4,39.7,56.1,86.3,112.7,141c56.8,54.9,115,57.1,183.3,54.7
			c65.6-2.4,121.5-15.4,142.7-56.2c29.2-4.2,58.6-15.7,80.7-37.4c40.9,47.3,103.2,90.6,138.7,99.2c23.9,5.8,36.7,3.7,49.2-11.3
			C960.2,595.4,960,563.5,955.4,542.3z"/>
		<g id="XMLID_79_">
			<defs>
				<polygon id="XMLID_78_" points="661.5,564.7 693.3,559.6 689.5,608 366,661 204,428 288.5,410.5 437,573 630,583.5 				"/>
			</defs>
			<clipPath id="XMLID_00000026147764019541718980000002011218721150828454_">
				<use xlink:href="#XMLID_78_"  style="overflow:visible;"/>
			</clipPath>
			
				<path id="XMLID_77_" style="clip-path:url(#XMLID_00000026147764019541718980000002011218721150828454_);fill:none;stroke:#6BABDA;stroke-width:9;stroke-miterlimit:10;" d="
				M681.8,550.5C666,601,605.8,616.4,534,619c-68.3,2.5-126.5,0.3-183.3-54.7c-56.6-54.7-64.2-101.3-112.7-141"/>
		</g>
		<g id="XMLID_73_">
			<path id="XMLID_359_" class="st2" d="M456.3,445.7c0,0-1.8-0.7-5-2c-1.6-0.6-3.4-1.5-5.6-2.6c-1.1-0.5-2.2-1.1-3.4-1.7
				c-1.2-0.7-2.4-1.4-3.7-2.1c-1.3-0.8-2.6-1.5-3.9-2.4c-1.3-0.9-2.7-1.8-4.1-2.7c-0.7-0.5-1.4-1-2.1-1.5c-0.7-0.5-1.4-1.1-2.1-1.6
				c-1.4-1.1-2.8-2.2-4.2-3.4c-1.4-1.2-2.8-2.4-4.2-3.7c-0.7-0.6-1.5-1.2-2.2-1.9c-0.7-0.6-1.4-1.3-2.1-2c-1.4-1.4-2.8-2.7-4.1-4.1
				c-1.3-1.4-2.7-2.8-4-4.2c-1.4-1.4-2.6-2.9-4-4.3c-1.3-1.4-2.6-2.9-3.9-4.3c-1.3-1.5-2.5-2.9-3.7-4.3c-1.2-1.4-2.4-2.9-3.5-4.3
				c-2.3-2.8-4.5-5.6-6.5-8.2c-2-2.7-4-5.2-5.7-7.5c-1.7-2.4-3.3-4.5-4.6-6.5c-1.4-1.9-2.6-3.6-3.5-5c-1.9-2.8-3-4.4-3-4.4l7.5-5
				c0,0,1.1,1.6,2.9,4.3c0.9,1.4,2.1,3,3.4,4.9c1.3,1.9,2.9,4,4.5,6.3c1.7,2.3,3.6,4.8,5.5,7.4c2,2.6,4.1,5.3,6.4,8
				c1.1,1.4,2.3,2.8,3.5,4.2c1.2,1.4,2.4,2.8,3.6,4.2c1.2,1.4,2.5,2.8,3.7,4.2c1.3,1.4,2.5,2.8,3.8,4.2c1.3,1.4,2.6,2.7,3.9,4.1
				c1.3,1.4,2.7,2.7,4,4c2.6,2.6,5.2,5.3,7.7,7.8c1.3,1.2,2.6,2.4,3.8,3.6c1.2,1.2,2.4,2.4,3.6,3.5c1.2,1.1,2.3,2.2,3.4,3.3
				c1.1,1.1,2.2,2,3.3,3c1,1,2,1.9,3,2.8c1,0.9,1.9,1.7,2.8,2.5c0.9,0.8,1.7,1.5,2.4,2.2c0.8,0.7,1.5,1.3,2.1,1.8
				C454.9,444.3,456.3,445.7,456.3,445.7z"/>
		</g>
		<g id="XMLID_76_">
			<path id="XMLID_357_" class="st2" d="M589.8,553.8c0,0,0.2,0,0.6,0.1c0.4,0.1,0.9,0.2,1.7,0.3c0.7,0.2,1.6,0.4,2.7,0.6
				c1,0.2,2.2,0.4,3.6,0.7c2.7,0.5,5.9,1.1,9.7,1.6c3.7,0.6,7.9,1,12.5,1.6c4.6,0.4,9.6,0.9,14.8,0.9c2.6,0.2,5.3,0.3,8.1,0.5
				c1.4,0,2.8,0.1,4.2,0.1c0.7,0,1.4,0,2.1,0c0.7,0,1.4,0,2.1,0c5.7,0,11.7-0.4,17.7-1c6-0.6,12-1.6,18-2.9c6-1.3,11.9-2.9,17.6-4.8
				c1.4-0.5,2.8-1,4.2-1.5c1.4-0.5,2.8-1,4.1-1.6c1.4-0.6,2.7-1.1,4-1.7c1.3-0.6,2.6-1.2,3.9-1.8c0.6-0.3,1.3-0.6,1.9-0.9
				c0.6-0.3,1.2-0.7,1.9-1c1.2-0.7,2.5-1.3,3.7-1.9c1.2-0.6,2.4-1.3,3.6-1.9c1.2-0.6,2.4-1.2,3.5-1.9c2.2-1.4,4.4-2.6,6.4-4
				c1-0.7,2-1.4,3-2c1-0.7,1.9-1.4,2.8-2c0.9-0.7,1.8-1.3,2.7-2c0.9-0.7,1.7-1.3,2.5-2c0.8-0.6,1.6-1.3,2.4-1.9
				c0.8-0.6,1.5-1.3,2.2-1.9c1.4-1.2,2.8-2.4,4-3.5c1.2-1.1,2.3-2.2,3.3-3.1c1-0.9,1.9-1.8,2.6-2.6c0.8-0.8,1.4-1.4,1.9-1.9
				c1.1-1,1.6-1.6,1.6-1.6s-0.4,0.7-1.1,2c-0.4,0.7-0.8,1.5-1.3,2.4c-0.3,0.5-0.5,1-0.8,1.5c-0.3,0.5-0.7,1.1-1.1,1.7
				c-0.8,1.2-1.6,2.5-2.5,3.9c-0.9,1.4-2.1,2.8-3.3,4.4c-1.2,1.6-2.6,3.1-4,4.8c-0.7,0.8-1.5,1.7-2.3,2.5c-0.8,0.8-1.7,1.6-2.6,2.5
				c-0.9,0.8-1.7,1.7-2.7,2.5c-1,0.8-2,1.6-3,2.5c-2,1.7-4.2,3.2-6.5,4.9c-1.1,0.8-2.3,1.6-3.5,2.4c-1.2,0.8-2.4,1.6-3.7,2.4
				c-1.3,0.7-2.6,1.4-3.9,2.1c-0.7,0.3-1.3,0.7-2,1c-0.7,0.3-1.4,0.6-2.1,1c-1.4,0.6-2.8,1.3-4.2,1.9c-1.4,0.6-2.9,1.2-4.3,1.8
				c-1.4,0.6-2.9,1.2-4.4,1.7c-1.5,0.5-3,1.1-4.5,1.6c-6,2-12.3,3.7-18.5,5.1c-6.3,1.3-12.6,2.4-18.9,3c-6.3,0.6-12.5,1.1-18.5,1.1
				c-0.8,0-1.5,0-2.2,0c-0.7,0-1.5,0-2.2,0c-1.5,0-2.9-0.1-4.4-0.1c-2.9-0.2-5.7-0.2-8.5-0.5c-1.4-0.2-2.7-0.4-4-0.6
				c-1.3-0.2-2.6-0.5-3.9-0.7c-1.3-0.2-2.5-0.5-3.8-0.7c-1.2-0.3-2.4-0.5-3.6-0.8c-4.7-1.1-8.9-2.4-12.6-3.7c-1.8-0.7-3.5-1.3-5.1-2
				c-1.6-0.7-3-1.3-4.2-1.9c-1.2-0.7-2.4-1.2-3.3-1.7c-0.9-0.6-1.7-1-2.3-1.4c-0.6-0.4-1.1-0.7-1.4-0.9
				C589.9,553.9,589.8,553.8,589.8,553.8z"/>
		</g>
		<g id="XMLID_80_">
			<defs>
				<polygon id="XMLID_83_" points="421.1,418.9 446,439.1 742,501.2 769.5,480.7 661,341.5 				"/>
			</defs>
			<clipPath id="XMLID_00000016768458803391244730000002158393791487995292_">
				<use xlink:href="#XMLID_83_"  style="overflow:visible;"/>
			</clipPath>
			<g id="XMLID_72_" style="clip-path:url(#XMLID_00000016768458803391244730000002158393791487995292_);">
				<path id="XMLID_355_" class="st2" d="M744,480.7c0,0-1.3-0.9-3.6-2.7c-1.1-0.9-2.5-2.1-4.1-3.6c-1.5-1.5-3.3-3.2-5.1-5.2
					c-3.7-4-8.1-9-12.4-15c-2.2-3-4.4-6.3-6.9-9.6c-2.5-3.3-5-6.8-7.8-10.4c-5.5-7.1-12-14.4-19.6-21c-1-0.8-2-1.6-2.9-2.4l-1.5-1.2
					l-1.6-1.1c-1-0.7-2.1-1.5-3.2-2.3c-1.1-0.7-2.2-1.4-3.3-2.1c-1.1-0.7-2.3-1.3-3.4-2c-1.2-0.6-2.3-1.3-3.5-1.8
					c-1.2-0.6-2.4-1.1-3.6-1.7c-1.2-0.5-2.5-0.9-3.8-1.4c-5.1-1.7-10.5-3.1-16-3.6c-2.8-0.4-5.6-0.4-8.4-0.5c-1.4,0-2.8,0.1-4.3,0.2
					c-1.4,0.1-2.9,0.1-4.3,0.3c-1.4,0.2-2.9,0.3-4.3,0.5l-1.1,0.1l-1.1,0.2l-2.1,0.4c-1.4,0.3-2.9,0.5-4.3,0.8l-4.3,1.1
					c-2.9,0.7-5.7,1.7-8.5,2.6c-2.8,0.9-5.7,2-8.6,3c-11.4,4.2-22.8,8.7-33.9,13.2c-11.2,4.5-22.3,8.9-33.3,12.6
					c-11.1,3.7-22.1,6.6-32.8,8.2c-5.4,0.9-10.6,1.3-15.7,1.5c-2.5,0.1-5.1,0.2-7.5,0.1c-1.2,0-2.4,0-3.6,0c-1.2,0-2.4-0.1-3.6-0.1
					c-9.4-0.4-18-1.6-25.5-2.8c-7.5-1.2-13.9-2.8-19.2-4c-2.6-0.7-5-1.3-7-1.8c-2-0.5-3.8-1-5.2-1.4c-2.8-0.8-4.3-1.2-4.3-1.2
					l2.5-8.7c0,0,1.5,0.4,4.2,1.2c1.4,0.4,3.1,0.9,5,1.4c2,0.5,4.3,1.1,6.8,1.7c5.1,1.2,11.4,2.6,18.6,3.8
					c7.2,1.2,15.4,2.3,24.3,2.7c1.1,0,2.2,0.1,3.4,0.1c1.1,0,2.3,0,3.4,0c2.3,0.1,4.7-0.1,7.1-0.1c4.8-0.3,9.7-0.6,14.8-1.5
					c10.1-1.5,20.6-4.3,31.3-7.8c10.7-3.6,21.7-8,32.9-12.5c11.2-4.5,22.6-9,34.2-13.3c2.9-1,5.7-2.2,8.8-3.1c3-1,6-2,9-2.8
					c1.5-0.4,3.1-0.8,4.6-1.2c1.5-0.3,3.1-0.6,4.7-0.9l2.3-0.4l1.2-0.2l1.2-0.1c1.6-0.2,3.1-0.4,4.7-0.6c1.6-0.2,3.1-0.3,4.7-0.3
					c1.6-0.1,3.1-0.2,4.7-0.2c3.1,0.1,6.3,0.1,9.4,0.5c6.2,0.6,12.3,2.1,18,4c1.4,0.5,2.9,1,4.3,1.6c1.4,0.6,2.7,1.2,4.1,1.9
					c1.4,0.6,2.6,1.3,3.9,2c1.3,0.7,2.6,1.4,3.8,2.2c1.2,0.8,2.4,1.6,3.7,2.3c1.2,0.8,2.3,1.7,3.5,2.5c0.6,0.4,1.1,0.8,1.7,1.2
					c0.5,0.4,1.1,0.9,1.6,1.3c1.1,0.9,2.2,1.7,3.2,2.6c8.2,7.2,15,14.9,20.8,22.3c1.4,1.8,2.9,3.6,4.2,5.4c1.3,1.8,2.7,3.5,3.8,5.3
					c2.4,3.5,4.7,6.7,6.8,9.9c4.2,6.2,7.2,11.9,9.9,16.6c1.3,2.3,2.5,4.4,3.5,6.3c1,1.8,1.9,3.3,2.6,4.6
					C743.3,479.3,744,480.7,744,480.7z"/>
			</g>
		</g>
		<g id="XMLID_87_">
			<defs>
				<polygon id="XMLID_88_" points="726.9,458.2 739.5,475.4 762.6,520.1 749.3,532.7 771.5,588.5 953,682 991,611.5 978.5,491.5 
					774,395.5 				"/>
			</defs>
			<clipPath id="XMLID_00000072998882326835470970000002532722382331188378_">
				<use xlink:href="#XMLID_88_"  style="overflow:visible;"/>
			</clipPath>
			
				<path id="XMLID_86_" style="clip-path:url(#XMLID_00000072998882326835470970000002532722382331188378_);fill:none;stroke:#6BABDA;stroke-width:9;stroke-miterlimit:10;" d="
				M728,478.8c5.8-17.7,22.2-36.2,34.3-42.9c12.8-7.1,15.5-7.4,35.3,9.4c30.5,25.9,84.7,53,120.3,61c18.7,3.8,31.6,9.1,37.4,35.9
				c4.6,21.2,4.8,53.1-10.1,71.1c-12.5,15-25.3,17.1-49.2,11.3c-38.7-9.4-109.2-60-149.2-112"/>
		</g>
	</g>
	<g id="XMLID_39_">
		<g id="XMLID_156_">
			<path id="XMLID_110_" class="st12" d="M446,586c-80.2,51.8-213.9,60.1-285.1,49.3c-40-6.1-50.4-19.1-57-49.6
				c-3.3-15.3-5.2-45.4,1.6-64.5c7.5-21.2,23-26.4,57.5-11.3c36.9,16.2,149.8,31.6,269.5,19.1"/>
			<path id="XMLID_109_" class="st2" d="M446,586c0,0-2.4,1.9-7,5.4c-2.4,1.7-5.3,3.7-8.8,6c-1.8,1.1-3.7,2.3-5.8,3.5
				c-2,1.3-4.3,2.4-6.7,3.8c-1.2,0.6-2.4,1.4-3.7,2c-1.3,0.6-2.6,1.3-3.9,2c-1.3,0.7-2.7,1.3-4.1,2c-1.4,0.6-2.9,1.3-4.4,2
				c-1.5,0.7-3,1.4-4.6,2c-1.6,0.6-3.2,1.3-4.8,1.9c-3.3,1.3-6.7,2.5-10.3,3.6c-1.8,0.6-3.6,1.2-5.5,1.8c-1.9,0.6-3.7,1.2-5.6,1.8
				c-3.8,1.2-7.8,2.2-11.9,3.3c-4.1,1-8.3,2.1-12.6,3.1c-2.2,0.5-4.3,1-6.6,1.5c-2.2,0.5-4.5,0.9-6.7,1.4
				c-9.1,1.8-18.6,3.5-28.4,4.9c-9.9,1.4-20.1,2.7-30.7,3.6c-21.1,1.9-43.5,2.8-66.6,2.1c-11.6-0.3-23.3-1.1-35.2-2.4
				c-1.5-0.2-3-0.3-4.5-0.5c-1.5-0.2-3-0.4-4.5-0.6l-2.2-0.3l-0.6-0.1l-0.6-0.1l-1.1-0.2c-1.5-0.3-2.9-0.5-4.4-0.8
				c-1.4-0.2-3-0.6-4.5-0.9c-1.5-0.4-3.1-0.6-4.6-1l-4.5-1.2c-1.5-0.4-3-1-4.5-1.5c-6-2.1-12-5-17.2-9.3c-5.3-4.2-9.4-9.9-12.3-15.8
				c-2.9-5.9-4.7-12.1-6.2-18.2l-0.5-2.3l-0.3-1.1l-0.1-0.6l-0.1-0.6l-0.4-2.2c-0.1-0.8-0.3-1.6-0.4-2.4c-0.5-3.2-0.9-6.3-1.2-9.4
				c-0.6-6.3-0.9-12.5-0.9-18.8c0.1-6.3,0.4-12.6,1.4-18.9c0.9-6.3,2.4-12.6,5.1-18.7c1.4-3,3.1-6,5.3-8.8c2.2-2.7,5-5.2,8.3-6.9
				c3.2-1.7,6.8-2.7,10.2-3.1c3.4-0.4,6.8-0.3,10,0.1c6.5,0.8,12.4,2.6,18.2,4.6c2.9,1,5.7,2.1,8.4,3.3l1,0.4l0.5,0.2
				c-0.2-0.1,0.1,0,0.1,0l0.3,0.1l2,0.8c1.4,0.5,2.7,1.1,4.1,1.6c1.4,0.6,2.7,0.9,4,1.3c1.3,0.4,2.6,0.8,4,1.2
				c2.6,0.9,5.4,1.5,8.1,2.2c5.4,1.5,11,2.6,16.4,3.8c2.7,0.6,5.5,1,8.2,1.5c2.7,0.5,5.4,1,8.1,1.4c2.7,0.4,5.4,0.8,8.1,1.2
				c2.7,0.4,5.3,0.9,8,1.2c5.3,0.7,10.6,1.4,15.7,2c20.8,2.4,40.5,3.5,58.7,4.3c4.6,0.1,9,0.3,13.4,0.4c4.4,0,8.6,0.1,12.8,0.1
				c4.2,0,8.2,0.2,12.2,0.1c3.9-0.1,7.8-0.1,11.5-0.2c1.9,0,3.7,0,5.5,0c1.8,0,3.6-0.1,5.3-0.1c3.5-0.1,6.8,0,10,0
				c6.4,0.2,12.3,0,17.7,0.1c5.3-0.1,10.1,0.1,14.3,0c4.2,0,7.7,0,10.6,0c5.8,0,8.8,0.2,8.8,0.2s-3,0.7-8.7,1.7
				c-2.8,0.5-6.3,1.2-10.5,1.9c-1,0.2-2.1,0.4-3.2,0.5c-1.1,0.2-2.3,0.3-3.4,0.5c-2.4,0.3-4.9,0.7-7.6,1c-5.3,0.7-11.3,1.4-17.7,2
				c-3.2,0.3-6.6,0.5-10.1,0.7c-1.7,0.1-3.5,0.2-5.3,0.3c-1.8,0-3.7,0.1-5.5,0.1c-7.5,0.1-15.5,0.3-23.9,0.2
				c-4.2,0-8.5-0.1-12.9-0.1c-4.4-0.1-8.9-0.3-13.5-0.4c-18.4-0.7-38.4-1.9-59.4-4.3c-5.3-0.6-10.6-1.3-16-2
				c-2.7-0.3-5.4-0.8-8.1-1.2c-2.7-0.4-5.5-0.8-8.2-1.3c-2.7-0.4-5.5-1-8.3-1.5c-2.8-0.5-5.6-1-8.3-1.6c-5.6-1.3-11.2-2.3-16.8-3.9
				c-2.8-0.8-5.6-1.4-8.5-2.3c-1.4-0.5-2.9-0.9-4.3-1.4c-1.4-0.5-2.9-0.9-4.3-1.4c-1.4-0.5-2.7-1.1-4.1-1.6l-2-0.8l-0.7-0.3
				l-0.5-0.2l-1-0.4c-2.6-1.1-5.3-2.2-8-3.1c-5.3-1.9-10.8-3.5-16.2-4.2c-5.4-0.7-10.7-0.3-14.9,2c-2.1,1.1-3.9,2.7-5.5,4.6
				c-1.6,2-2.9,4.3-4,6.7c-2.2,5.1-3.5,10.6-4.4,16.4c-1.7,11.5-1.6,23.6-0.5,35.4c0.3,2.9,0.7,5.9,1.2,8.8c0.1,0.7,0.2,1.4,0.4,2.1
				l0.4,2.2l0.1,0.5l0.1,0.5l0.3,1.1l0.5,2.2c1.4,5.7,3.1,11.3,5.6,16.4c2.4,5,5.7,9.4,9.9,12.8c4.2,3.4,9.2,5.9,14.5,7.8
				c1.4,0.4,2.7,0.9,4.1,1.3l4.2,1.1c1.4,0.4,2.8,0.6,4.2,1c1.4,0.3,2.7,0.6,4.3,0.9c1.5,0.3,2.9,0.5,4.4,0.8l1.1,0.2l0.5,0.1
				l0.5,0.1l2.2,0.3c1.4,0.2,2.9,0.4,4.3,0.6c1.4,0.2,2.9,0.3,4.3,0.5c11.6,1.3,23.1,2,34.5,2.4c22.7,0.7,44.7-0.2,65.5-2.1
				c10.4-0.9,20.5-2.1,30.2-3.5c9.7-1.4,19-3,28-4.8c17.8-3.6,33.9-7.9,48-12.4c14-4.6,26.2-8.6,36.1-12.5c2.5-1,4.8-1.9,7-2.8
				c2.2-0.9,4.2-1.8,6.1-2.6c1.9-0.8,3.6-1.6,5.2-2.3c1.6-0.7,3.1-1.4,4.4-2C443.2,587.3,446,586,446,586z"/>
		</g>
		<path id="XMLID_155_" class="st2" d="M127.2,514.8c2.3,14.8,5,45.2,0.8,82.8C138.7,565.8,139,525.8,127.2,514.8z"/>
	</g>
	<path id="XMLID_56_" class="st16" d="M95.5,316.5C74.8,212.1,117,126.5,198.6,106s168,41.3,190.9,132.5s-15,154-76,185
		C229.9,466,117,425,95.5,316.5z"/>
	<path id="XMLID_18_" class="st17" d="M293.2,276.5c-1.1-12.2-0.7-23.8,1.2-34.4c28.8,8.3,59.5,7.2,84.8-10.3
		c4.2,10.6,7.2,22.8,8.4,35.8c4.2,44.6-13.5,82.8-39.6,85.2S297.5,321.1,293.2,276.5z"/>
	<g id="XMLID_69_">
		<path id="XMLID_11_" d="M378.4,257.4c0,0,33.6-8.5,34.7-4.8c1.2,3.9-34.5,12.7-34.5,12.7"/>
		<path id="XMLID_10_" d="M380.4,242.8c0,0,30-17.2,32.1-14c2.2,3.4-29.8,21.5-29.8,21.5"/>
		<defs>
			<filter id="Adobe_OpacityMaskFilter" filterUnits="userSpaceOnUse" x="281.5" y="220" width="106.8" height="133">
				<feColorMatrix  type="matrix" values="1 0 0 0 0  0 1 0 0 0  0 0 1 0 0  0 0 0 1 0"/>
			</filter>
		</defs>
		
			<mask maskUnits="userSpaceOnUse" x="281.5" y="220" width="106.8" height="133" id="XMLID_00000125596091115233166800000010522871001998623119_">
			<g id="XMLID_19_" class="st18">
				<path id="XMLID_12_" class="st19" d="M293.2,276.5c-1.1-12.2-0.7-23.8,1.2-34.4c28.8,8.3,59.5,7.2,84.8-10.3
					c4.2,10.6,7.2,22.8,8.4,35.8c4.2,44.6-13.5,82.8-39.6,85.2S297.5,321.1,293.2,276.5z"/>
			</g>
		</mask>
		<g id="XMLID_5_" style="mask:url(#XMLID_00000125596091115233166800000010522871001998623119_);">
			<path id="XMLID_4_" class="st19" d="M293.2,276.5c-1.1-12.2-0.7-23.8,1.2-34.4c28.8,8.3,59.5,7.2,84.8-10.3
				c4.2,10.6,7.2,22.8,8.4,35.8c4.2,44.6-13.5,82.8-39.6,85.2S297.5,321.1,293.2,276.5z"/>
			<g id="XMLID_15_">
				<defs>
					
						<ellipse id="XMLID_13_" transform="matrix(0.9985 -5.408862e-02 5.408862e-02 0.9985 -14.4786 17.5907)" cx="317.7" cy="276.3" rx="36.1" ry="56.3"/>
				</defs>
				<clipPath id="XMLID_00000056424354946123154040000003600277810664297634_">
					<use xlink:href="#XMLID_13_"  style="overflow:visible;"/>
				</clipPath>
				
					<linearGradient id="XMLID_00000088811142663102973660000000196070264092877998_" gradientUnits="userSpaceOnUse" x1="334.3611" y1="319.0317" x2="300.9466" y2="233.0751">
					<stop  offset="0.4356" style="stop-color:#BC1D75"/>
					<stop  offset="0.5407" style="stop-color:#AD1B6B"/>
					<stop  offset="0.7423" style="stop-color:#851453"/>
					<stop  offset="0.9434" style="stop-color:#580D36"/>
				</linearGradient>
				
					<path id="XMLID_7_" style="clip-path:url(#XMLID_00000056424354946123154040000003600277810664297634_);fill:url(#XMLID_00000088811142663102973660000000196070264092877998_);" d="
					M281.7,278.2c-1.7-31.1,13.1-57.1,33-58.2c19.9-1.1,37.4,23.2,39.1,54.3c1.7,31.1-13.1,57.1-33,58.2
					C300.9,333.6,283.4,309.3,281.7,278.2z"/>
				
					<polygon id="XMLID_8_" style="clip-path:url(#XMLID_00000056424354946123154040000003600277810664297634_);fill:#D9539D;" points="
					358.5,278 335,285.2 334,296 358.5,300.7 				"/>
				
					<polygon id="XMLID_9_" style="clip-path:url(#XMLID_00000056424354946123154040000003600277810664297634_);fill:#FCB6DF;" points="
					334.3,292.8 358.5,295 354.8,312 334,300.7 				"/>
			</g>
			<g id="XMLID_3_">
				
					<ellipse id="XMLID_6_" transform="matrix(0.9869 -0.1611 0.1611 0.9869 -40.4205 54.5046)" cx="316" cy="276.6" rx="26.3" ry="42"/>
				
					<ellipse id="XMLID_16_" transform="matrix(0.708 -0.7062 0.7062 0.708 -82.3222 304.2805)" class="st19" cx="326.8" cy="251.7" rx="11.7" ry="18.5"/>
				
					<ellipse id="XMLID_17_" transform="matrix(0.5733 -0.8194 0.8194 0.5733 -85.5667 375.4693)" class="st19" cx="317.7" cy="269.9" rx="4.9" ry="6.7"/>
			</g>
		</g>
		<g id="XMLID_2_">
			<path id="XMLID_104_" d="M309.8,328.4c0,0-0.2-0.3-0.7-0.8c-0.4-0.5-1.1-1.2-1.8-2.3c-0.4-0.5-0.8-1.1-1.2-1.7
				c-0.4-0.6-0.8-1.3-1.3-2c-0.5-0.7-0.9-1.5-1.4-2.4c-0.2-0.4-0.5-0.9-0.7-1.3c-0.2-0.5-0.5-0.9-0.7-1.4c-1-1.9-2-4-2.9-6.2
				c-0.5-1.1-0.9-2.3-1.4-3.5c-0.5-1.2-0.9-2.4-1.3-3.7c-0.8-2.5-1.6-5.2-2.3-7.9c-0.7-2.7-1.3-5.5-1.8-8.3
				c-0.3-1.4-0.5-2.8-0.7-4.2c-0.2-1.4-0.4-2.8-0.6-4.2c-0.1-0.7-0.2-1.4-0.2-2.1c-0.1-0.7-0.1-1.4-0.2-2c-0.1-1.4-0.2-2.7-0.3-4.1
				c-0.3-5.3-0.3-10.3,0-14.6c0.3-4.3,0.7-7.8,1-10.3c0.2-1.2,0.3-2.2,0.5-2.9c0.1-0.7,0.2-1,0.2-1l4.9,0.9c0,0-0.1,0.3-0.1,1
				c-0.1,0.6-0.2,1.6-0.4,2.8c-0.2,1.2-0.3,2.6-0.5,4.3c-0.2,1.7-0.3,3.5-0.4,5.6c-0.1,2.1-0.2,4.3-0.2,6.6c0,2.4,0,4.8,0.1,7.4
				c0,1.3,0.1,2.6,0.2,3.9c0,0.7,0.1,1.3,0.1,2c0.1,0.7,0.1,1.3,0.2,2c0.2,2.7,0.6,5.4,1,8.1c0.4,2.7,0.9,5.4,1.4,8.1
				c0.6,2.6,1.2,5.2,1.9,7.7c0.7,2.5,1.4,4.9,2.2,7.1c0.4,1.1,0.7,2.2,1.1,3.3c0.4,1.1,0.7,2.1,1.1,3c0.7,1.9,1.4,3.7,2.1,5.3
				c0.6,1.6,1.2,2.9,1.7,4.1c0.5,1.1,0.9,2,1.1,2.6C309.7,328.1,309.8,328.4,309.8,328.4z"/>
		</g>
		<path id="XMLID_157_" class="st24" d="M276,237.8c-6.5-12.7-7.6-33.5-5.8-34.2c2-0.8,4.5,16.5,10.1,28.5
			c17.2,12.9,67,17.1,96.7-2.8c6.8-4.5,26.9-18.3,28.3-16.2c2.1,3.1-18,17.3-24.7,22.3C356.9,253.5,301.8,256.2,276,237.8z"/>
	</g>
	<g id="XMLID_25_">
		<path id="XMLID_154_" class="st2" d="M288.5,410.5c-0.1-29,11-45.8,47.8-41.8C308.5,373,294.8,385.2,288.5,410.5z"/>
		<path id="XMLID_270_" class="st2" d="M246.5,346.5c10.9-13.8,29.5-16.9,43.8-11.5C275.4,335.8,259.6,339.5,246.5,346.5z"/>
		<path id="XMLID_271_" class="st2" d="M251.4,356.5c-6.6,9.6,0.5,19.7,12.6,10.6C257,368.8,250.6,365.2,251.4,356.5z"/>
		<path id="XMLID_20_" class="st2" d="M292.6,345.9c9.8,5.2,8.1,17.7-6.2,15.4C293.4,358.7,297,353.7,292.6,345.9z"/>
	</g>
	<g id="XMLID_33_">
		<g id="XMLID_21_">
			<path id="XMLID_101_" class="st12" d="M126,194c-12.2-57.5-48.3-89.5-60.9-87.2c-9.4,1.6-27.6,22.3-33.6,65.6
				C25.7,214.3,41,276.5,107,303"/>
			<path id="XMLID_100_" class="st2" d="M126,194c0,0-0.5-1.3-1.3-3.7c-0.9-2.4-2.2-6-4-10.4c-1.8-4.4-4.1-9.7-7-15.6
				c-3-5.9-6.5-12.4-10.8-19.1c-2.1-3.4-4.5-6.8-7.2-10.2c-1.3-1.7-2.7-3.4-4.2-5c-1.4-1.7-2.9-3.4-4.4-5c-3.1-3.3-6.5-6.4-10.2-9
				c-1.8-1.3-3.8-2.5-5.7-3.4c-1-0.4-1.9-0.8-2.8-1c-0.9-0.2-1.7-0.3-2.2-0.3c-0.1,0-0.1,0-0.2,0c-0.2,0,0.3-0.1,0.2,0l-0.1,0
				l-0.2,0.1l-0.5,0.1c-0.1,0-0.1,0.1-0.2,0.1c-0.1,0-0.1,0-0.2,0.1c-0.1,0-0.2,0.1-0.3,0.1c-0.2,0.1-0.4,0.2-0.6,0.3
				c-0.8,0.4-1.7,1-2.6,1.7c-1.7,1.3-3.4,3-5,4.8c-3.1,3.7-5.8,8-8.2,12.6c-4.7,9.2-7.9,19.4-10.2,29.8c-1.1,5.2-2,10.6-2.6,15.8
				c-0.6,5.2-0.7,10.5-0.6,15.7c0.2,10.4,1.9,20.7,4.4,30.3c2.5,9.6,6.2,18.6,10.6,26.5c2.2,4,4.5,7.8,7,11.2c2.5,3.5,5,6.8,7.7,9.8
				c5.2,6,10.6,11,15.7,15.2c5.1,4.1,9.8,7.4,13.8,10c4,2.6,7.3,4.5,9.5,5.8c2.3,1.3,3.5,2,3.5,2s-0.3-0.1-1-0.3
				c-0.6-0.2-1.6-0.4-2.8-0.8c-2.5-0.8-6.1-2-10.6-3.9c-1.1-0.5-2.3-1-3.5-1.6c-1.2-0.6-2.5-1.2-3.8-1.9c-2.6-1.3-5.4-3-8.3-4.9
				c-5.7-3.7-11.9-8.5-17.9-14.6c-3-3-5.9-6.4-8.7-10c-2.8-3.7-5.4-7.6-7.9-11.8c-4.9-8.5-8.9-18-11.9-28.3
				c-3-10.2-4.6-21.2-4.9-32.4c-0.1-5.6,0.1-11.2,0.7-16.9c0.6-5.7,1.6-11.1,2.7-16.7c2.4-11,5.8-21.9,11-32c2.6-5,5.6-9.9,9.3-14.3
				c1.9-2.2,3.9-4.3,6.3-6.1c1.2-0.9,2.5-1.8,4-2.6c0.4-0.2,0.8-0.4,1.2-0.5c0.2-0.1,0.4-0.2,0.6-0.3l0.8-0.3
				c0.2-0.1,0.5-0.2,0.7-0.2l0.5-0.1l0.2-0.1l0.1,0c0,0,0.6-0.1,0.4-0.1l0.8-0.1c2-0.2,3.8,0.1,5.4,0.5c1.6,0.4,3,1,4.3,1.6
				c2.7,1.2,5,2.7,7.2,4.2c4.4,3.1,8.1,6.6,11.5,10.2c1.7,1.8,3.3,3.6,4.8,5.4c1.5,1.9,2.9,3.8,4.2,5.6c2.6,3.8,5,7.5,7.1,11.2
				c4.2,7.4,7.3,14.5,9.5,20.9c2.2,6.4,3.7,12.2,4.7,17c1,4.8,1.5,8.6,1.8,11.1c0.2,1.3,0.3,2.3,0.3,2.9C126,193.7,126,194,126,194z
				"/>
		</g>
		<path id="XMLID_22_" class="st2" d="M57.8,143.7C43,185,56.5,228.5,85.5,246.2C64,221.5,54,192,57.8,143.7z"/>
	</g>
	<path id="XMLID_64_" class="st17" d="M212,285.4c-4.2-9.8-9.4-18.7-15.3-26.5c-18.9,21.7-56.7,38.9-94.7,37.4
		c1.4,10.5,4.4,21.4,9,32.3c18.4,43,55.9,68.1,83.8,56.2C222.8,372.9,230.4,328.4,212,285.4z"/>
	<g id="XMLID_66_">
		<path id="XMLID_67_" d="M106.1,306.5c0,0-34.6-0.3-34.8,3.5c-0.2,4,36.5,4.2,36.5,4.2"/>
		<path id="XMLID_68_" d="M115.5,320.7c0,0-34.1,6.2-33.5,10c0.5,4,36.7-2.8,36.7-2.8"/>
		<defs>
			
				<filter id="Adobe_OpacityMaskFilter_00000112610235002617253310000001182140647163973762_" filterUnits="userSpaceOnUse" x="102" y="255.6" width="125.2" height="132.2">
				<feColorMatrix  type="matrix" values="1 0 0 0 0  0 1 0 0 0  0 0 1 0 0  0 0 0 1 0"/>
			</filter>
		</defs>
		
			<mask maskUnits="userSpaceOnUse" x="102" y="255.6" width="125.2" height="132.2" id="XMLID_00000103236267036869649860000015782510637031386270_">
			<g id="XMLID_38_" style="filter:url(#Adobe_OpacityMaskFilter_00000112610235002617253310000001182140647163973762_);">
				<path id="XMLID_24_" class="st19" d="M212,285.4c-4.2-9.8-9.4-18.7-15.3-26.5c-18.9,21.7-56.7,38.9-94.7,37.4
					c1.4,10.5,4.4,21.4,9,32.3c18.4,43,55.9,68.1,83.8,56.2C222.8,372.9,230.4,328.4,212,285.4z"/>
			</g>
		</mask>
		<g id="XMLID_65_" style="mask:url(#XMLID_00000103236267036869649860000015782510637031386270_);">
			<path id="XMLID_41_" class="st19" d="M212,285.4c-4.2-9.8-9.4-18.7-15.3-26.5c-18.9,21.7-56.7,38.9-94.7,37.4
				c1.4,10.5,4.4,21.4,9,32.3c18.4,43,55.9,68.1,83.8,56.2C222.8,372.9,230.4,328.4,212,285.4z"/>
			<g id="XMLID_62_">
				<defs>
					
						<ellipse id="XMLID_48_" transform="matrix(0.929 -0.3701 0.3701 0.929 -100.7068 91.2143)" cx="187.3" cy="308" rx="37.1" ry="54.4"/>
				</defs>
				<clipPath id="XMLID_00000078040701304294685260000015978042077652783526_">
					<use xlink:href="#XMLID_48_"  style="overflow:visible;"/>
				</clipPath>
				<g id="XMLID_43_" style="clip-path:url(#XMLID_00000078040701304294685260000015978042077652783526_);">
					
						<linearGradient id="XMLID_00000053512434581007515600000016148998567817640355_" gradientUnits="userSpaceOnUse" x1="186.6187" y1="351.2538" x2="188.0183" y2="266.9624">
						<stop  offset="0.5226" style="stop-color:#BC1D75"/>
						<stop  offset="0.6079" style="stop-color:#B11B6E"/>
						<stop  offset="0.7579" style="stop-color:#94175C"/>
						<stop  offset="0.9538" style="stop-color:#640F3E"/>
						<stop  offset="1" style="stop-color:#580D36"/>
					</linearGradient>
					<path id="XMLID_61_" style="fill:url(#XMLID_00000053512434581007515600000016148998567817640355_);" d="M221.8,294.3
						c-11.1-27.9-35.6-44.4-54.6-36.8c-19,7.6-25.4,36.4-14.3,64.3s35.6,44.4,54.6,36.8C226.5,351,232.9,322.2,221.8,294.3z"/>
					<polygon id="XMLID_57_" class="st29" points="151.6,327.4 175.6,322.8 181,331.3 161.2,346.3 					"/>
					<polygon id="XMLID_52_" class="st30" points="179.5,328.8 158.8,341.6 169.2,354.1 183,335.2 					"/>
				</g>
			</g>
			<g id="XMLID_63_">
				
					<ellipse id="XMLID_45_" transform="matrix(0.9383 -0.3458 0.3458 0.9383 -94.0582 84.3861)" cx="189.5" cy="305.8" rx="27.3" ry="42.3"/>
				
					<ellipse id="XMLID_44_" transform="matrix(0.7142 -0.7 0.7 0.7142 -138.5293 215.4778)" class="st19" cx="194.6" cy="277.4" rx="13" ry="21.8"/>
				
					<ellipse id="XMLID_55_" transform="matrix(0.5695 -0.822 0.822 0.5695 -165.572 283.2026)" class="st19" cx="187.6" cy="299.7" rx="4.7" ry="6.4"/>
			</g>
		</g>
		<g id="XMLID_40_">
			<path id="XMLID_96_" d="M221.1,345.2c0,0,0-0.4,0-1c0-0.7,0-1.7,0-2.9c0-1.3,0-2.8-0.1-4.5c0-1.7-0.1-3.7-0.3-5.8
				c-0.1-1.1-0.2-2.2-0.3-3.3c-0.1-1.1-0.2-2.3-0.4-3.5c-0.2-1.2-0.3-2.4-0.5-3.7c-0.2-1.3-0.4-2.5-0.6-3.9c-0.3-1.3-0.5-2.6-0.8-4
				c-0.3-1.3-0.6-2.7-0.9-4c-0.7-2.7-1.4-5.4-2.3-8.1c-0.8-2.7-1.8-5.3-2.8-7.9c-0.5-1.3-1-2.6-1.5-3.8c-0.5-1.3-1-2.5-1.6-3.7
				c-2.2-4.8-4.6-9.1-6.7-12.8c-2.1-3.6-4.1-6.6-5.5-8.6c-1.4-2-2.2-3.1-2.2-3.1l4-3c0,0,0.9,1.2,2.4,3.2c1.5,2.1,3.5,5.1,5.8,8.9
				c2.2,3.8,4.5,8.4,6.7,13.4c0.5,1.2,1.1,2.6,1.6,3.9c0.5,1.3,1,2.6,1.5,4c0.5,1.3,0.9,2.7,1.4,4.1c0.5,1.4,0.8,2.8,1.2,4.2
				c0.8,2.8,1.5,5.7,2,8.5c0.3,1.4,0.5,2.8,0.8,4.2c0.2,1.4,0.4,2.8,0.6,4.1c0.1,1.4,0.3,2.7,0.4,4c0.1,1.3,0.2,2.6,0.2,3.8
				c0,1.3,0.1,2.5,0.1,3.6c0,1.2-0.1,2.3-0.1,3.4c-0.1,2.2-0.3,4.2-0.5,5.9c-0.2,1.8-0.5,3.3-0.8,4.5c-0.3,1.2-0.5,2.2-0.7,2.9
				C221.2,344.8,221.1,345.2,221.1,345.2z"/>
		</g>
		<path id="XMLID_42_" d="M204,252.7c-0.4-14.2-9.6-33-11.5-32.7c-2.1,0.3,4.1,16.6,5,29.8c-10.1,22.9-57.8,46.2-93.3,43.2
			c-8.1-0.7-32.4-3-32.6-0.4c-0.3,3.7,24.2,6.4,32.4,7.5C133.5,304.3,190.5,283,204,252.7z"/>
	</g>
	<g id="XMLID_1_">
		<g id="XMLID_23_">
			<g id="XMLID_26_">
				<defs>
					<path id="XMLID_37_" d="M311,157c-9.8-58,3.1-109,15.7-111.6l-150-64l-198,125.4l36,327.3l218.7-109.3L311,157z"/>
				</defs>
				<clipPath id="XMLID_00000107588906923219901960000008407647660265413504_">
					<use xlink:href="#XMLID_37_"  style="overflow:visible;"/>
				</clipPath>
				<g id="XMLID_31_" style="clip-path:url(#XMLID_00000107588906923219901960000008407647660265413504_);">
					<path id="XMLID_32_" class="st10" d="M319,103.7c-66,28.3-94,117-100,186c-15-28.3-23.7-59.3-29.7-89.3
						c-11,60-50.7,149-116.7,188.7c21.9-52.7,20.3-90.8,17.5-122.7c-3.2-36.5-9.9-69.4,4.8-107c-19.7,19-42.7,50.3-57.6,88.3
						c-0.2-71.7,47.9-135,88.6-156C92.7,91,66,100,36.2,120.2C127.3-2.3,239,18.3,326.7,72"/>
					<path id="XMLID_34_" class="st9" d="M319,103.7c-66,28.3-94,117-100,186c-15-28.3-23.7-59.3-29.7-89.3
						c-11,60-50.7,149-116.7,188.7c21.9-52.7,20.3-90.8,17.5-122.7c-3.2-36.5-9.9-69.4,4.8-107c-19.7,19-42.7,50.3-57.6,88.3
						c-0.1-28.8,7.6-56.3,19.6-80.3C97,122,189.8,54,244.9,36.2c28.5,7.3,56.2,20.1,81.7,35.8"/>
					<path id="XMLID_35_" class="st8" d="M319,103.7c-66,28.3-94,117-100,186c-15-28.3-23.7-59.3-29.7-89.3
						c-5.9,32-19.9,72.3-41.8,109C151.5,174.6,207.5,86.5,258,39.9c23.9,7.6,47,18.8,68.6,32.1"/>
					<path id="XMLID_36_" class="st32" d="M319.8,104.7c-66,28.3-94.8,116-100.8,185c-15-28.3-23.7-59.3-29.7-89.3
						c-11,60-50.7,149-116.7,188.7c21.9-52.7,20.3-90.8,17.5-122.7c-3.2-36.5-9.9-69.4,4.8-107c-19.7,19-42.7,50.3-57.6,88.3
						c-0.2-71.7,47.9-135,88.6-156C92.7,91,66,100,36.2,120.2C127.3-2.3,239,18.3,326.7,72"/>
				</g>
			</g>
		</g>
	</g>
	<g id="XMLID_30_">
		<path id="XMLID_29_" class="st12" d="M311,157c-9.8-58,3.1-109,15.7-111.6c9.3-1.9,24.5,8.4,41.6,40.8
			c19.7,37.3,28.3,94.1-1.5,131.1"/>
		<g id="XMLID_27_">
			<path id="XMLID_91_" class="st2" d="M311,157c0,0-0.1-0.3-0.3-0.9c-0.2-0.6-0.4-1.4-0.7-2.6c-0.3-1.1-0.7-2.5-1.1-4.2
				c-0.4-1.6-0.8-3.6-1.3-5.7c-0.5-2.1-0.9-4.5-1.3-7.1c-0.4-2.6-0.8-5.4-1.2-8.5c-0.7-6.1-1.2-12.9-1.2-20.5
				c0-7.5,0.5-15.7,1.6-24.4c0.5-4.3,1.4-8.7,2.5-13.2c1.1-4.5,2.4-9.1,4.3-13.6c1-2.3,2-4.6,3.4-6.9c1.4-2.3,3-4.6,5.9-6.7
				c0.3-0.3,0.8-0.5,1.2-0.7c0.4-0.2,0.8-0.5,1.3-0.6c0.5-0.2,1-0.3,1.5-0.5c0,0,0.8-0.1,0.5-0.1l0.1,0l0.2,0l0.4-0.1l0.9-0.1
				c0.4,0,0.9,0,1.4,0c0.5,0,0.9,0,1.4,0.1c0.2,0,0.5,0,0.6,0.1l0.6,0.1c0.8,0.2,1.6,0.3,2.3,0.5l2.1,0.7c0.7,0.3,1.3,0.6,2,0.9
				c0.3,0.2,0.7,0.3,1,0.5l0.9,0.5c4.8,2.8,8.7,6.5,12.2,10.3c3.5,3.9,6.6,7.9,9.5,12.2c0.7,1,1.4,2.1,2.1,3.2
				c0.7,1.1,1.4,2.1,2,3.2c1.3,2.2,2.6,4.3,3.8,6.5l1.8,3.3l0.5,0.8l0.3,0.5l0.2,0.4l0.8,1.6l0.8,1.6l0.8,1.7
				c0.6,1.2,1.1,2.3,1.6,3.4c4.1,9.1,7.3,18.5,9.5,27.7c2.1,9.3,3.5,18.4,4,27.2c0.3,4.4,0.2,8.6,0.1,12.8
				c-0.2,4.1-0.6,8.1-1.2,11.9c-0.6,3.8-1.4,7.4-2.3,10.7c-1,3.3-2,6.5-3.2,9.4c-2.4,5.7-5.1,10.5-7.6,14.1
				c-2.5,3.6-4.8,6.3-6.4,7.9c-1.6,1.7-2.5,2.5-2.5,2.5s0.6-1.1,1.8-3.1c0.3-0.5,0.6-1.1,0.9-1.7c0.3-0.6,0.7-1.3,1.1-2.1
				c0.4-0.7,0.8-1.6,1.2-2.4c0.4-0.9,0.9-1.8,1.3-2.7c1.7-3.9,3.5-8.7,5.1-14.4c1.6-5.6,2.8-12.1,3.5-19.3c0.1-0.9,0.2-1.8,0.3-2.7
				c0.1-0.9,0.1-1.8,0.2-2.8c0.1-1.9,0.1-3.8,0.2-5.7c0-3.9-0.1-7.9-0.4-12c-0.3-4.1-0.8-8.3-1.5-12.6c-0.7-4.3-1.6-8.6-2.8-13
				c-2.2-8.7-5.2-17.6-9-26.2c-0.5-1.1-1-2.1-1.5-3.2l-0.8-1.6l-0.8-1.6l-0.8-1.6l-0.2-0.4l-0.2-0.3l-0.4-0.8l-1.7-3.2
				c-1.1-2.1-2.4-4.2-3.6-6.2c-0.6-1-1.3-2-1.9-3c-0.6-1-1.3-2-2-3c-2.7-4-5.6-7.7-8.7-11.2c-3.1-3.4-6.5-6.5-10.1-8.6l-0.7-0.4
				c-0.2-0.1-0.4-0.2-0.7-0.3c-0.4-0.2-0.9-0.4-1.3-0.6l-1.3-0.4c-0.4-0.2-0.8-0.2-1.3-0.3l-0.3-0.1c-0.1,0-0.2,0-0.3,0
				c-0.1,0-0.3,0-0.4,0c-0.1,0-0.2-0.1-0.4-0.1l-0.9,0.1l-0.4,0.1l-0.2,0l-0.1,0c-0.4,0.1,0.4-0.1,0.3,0c-0.1,0-0.1,0.1-0.2,0.1
				c-0.1,0-0.2,0.1-0.3,0.1c-0.1,0.1-0.2,0.1-0.3,0.2c-1,0.7-2.3,2.3-3.3,4c-1.1,1.7-1.9,3.7-2.8,5.6c-1.6,4-2.9,8.2-3.9,12.4
				c-1,4.2-1.8,8.3-2.6,12.4c-1.5,8.2-2.2,16-2.8,23.3c-0.5,7.3-0.8,14-0.9,20c-0.1,6-0.1,11.2,0,15.5c0,2.2,0.1,4.1,0.1,5.8
				c0,1.7,0.1,3.1,0.2,4.3c0.1,1.2,0.1,2.1,0.1,2.7C311,156.7,311,157,311,157z"/>
		</g>
		<path id="XMLID_28_" class="st2" d="M344.2,78.8c24,33.2,24.5,75.8,9,100.8C361.5,150.2,359.5,115.8,344.2,78.8z"/>
	</g>
	<g id="RD_x27_s_CM">
		<path id="XMLID_134_" class="st10" d="M588.4,456c10.6,30.2,36,55.9,36,55.9l4.5-20.4c19.7,20.7,48.2,31.5,73.3,39
			c-23.8-1.7-51.4-7.3-69.1-24.2l0.1,27.5c-24.7-12.6-52.5-44.9-58.1-74L588.4,456z"/>
		<path id="XMLID_133_" class="st33" d="M595.2,454.2l11.4,6.7c6.9,17.2,17.6,31.5,17.6,31.5l4.4-11.8
			c25.9,30.8,61.9,45.3,73.5,49.8c-27.3-5.4-57.9-16.4-73-36.7l-2.9,23c-20.6-17.4-33.5-40.7-39.8-58.3L595.2,454.2z"/>
		<path id="XMLID_132_" class="st5" d="M613.6,453.5l-7.1,10.3c5.7,17.4,19.1,34.4,19.1,34.4l3.6-15.3c14.6,23.1,46,38.3,73.1,47.6
			c-51-21.8-67.1-48.2-73.4-62.3l-3.1,15.1c-4.4-8.6-3.8-22.9-3.8-22.9L613.6,453.5z"/>
		<path id="XMLID_131_" class="st19" d="M584.2,432c-31,12.4-14,47.4,9.7,26.2c-1.1,23.1,23.2,20.6,19.4-2.6
			c16.6,11.2,28.4,2.5,32.7-10.3c4.2-12.9-7.7-30.9-29.1-18.5c0.1-12.7-13.8-16.9-25.4-7.2c-4.1,3.4-6.4,7.8-7.1,11.7L584.2,432z"/>
		<g id="XMLID_129_">
			<path id="XMLID_130_" class="st5" d="M584.8,432.9c-0.6,0.3-1.3,0.5-1.9,0.8l-0.9,0.4l-0.9,0.4c-1.2,0.6-2.4,1.3-3.4,2.1
				c-2.2,1.5-4.1,3.3-5.6,5.3c-1.5,2-2.6,4.3-3.2,6.6c-0.6,2.3-0.6,4.7,0,7c0.3,1.1,0.7,2.2,1.4,3.2c0.6,1,1.4,1.9,2.3,2.7
				s1.9,1.4,3.1,1.8c1.2,0.5,2.4,0.7,3.7,0.7c2.6,0,5.1-0.7,7.5-1.9c1.2-0.6,2.3-1.3,3.4-2c1.1-0.8,2.1-1.6,3.1-2.5l1.7-1.5l0,2.1
				c0,0.9-0.1,1.8,0,2.7c0,0.9,0.1,1.8,0.2,2.6c0.3,1.7,0.7,3.4,1.5,4.9c0.8,1.5,1.8,2.9,3.3,3.9c0.7,0.5,1.5,0.8,2.4,1
				c0.8,0.2,1.7,0.2,2.6,0.1s1.7-0.5,2.5-0.9c0.7-0.5,1.4-1.1,2-1.7c1.2-1.3,2-2.9,2.5-4.6s0.8-3.5,0.8-5.2c0-0.9,0-1.8-0.1-2.6
				c-0.1-0.9-0.2-1.8-0.3-2.6l-0.3-2.1l1.9,1.3c2.9,2,6.2,3.6,9.6,4.5c1.7,0.4,3.6,0.6,5.3,0.5c1.8-0.1,3.5-0.5,5.2-1.3
				c1.6-0.7,3.1-1.7,4.4-2.9c1.3-1.2,2.4-2.5,3.4-4c0.9-1.4,1.8-3,2.4-4.6c0.7-1.6,1.2-3.2,1.4-4.8c0.5-3.2,0-6.6-1.3-9.6
				c-1.3-3-3.5-5.7-6.5-7.4c-1.5-0.8-3.2-1.4-4.9-1.7c-1.8-0.3-3.6-0.2-5.4,0c-1.8,0.2-3.6,0.8-5.3,1.4c-1.7,0.7-3.4,1.5-5,2.4
				l-1.5,0.9l0-1.6c0-2.5-0.5-5-1.9-7.1c-0.7-1-1.6-1.9-2.7-2.7c-1.1-0.7-2.3-1.3-3.6-1.6c-2.6-0.6-5.5-0.4-8.1,0.4
				c-2.6,0.8-5.1,2.2-7.2,4l-0.4,0.3l-0.4,0.3c-0.2,0.3-0.5,0.4-0.7,0.7c-0.5,0.4-0.9,1-1.4,1.5c-0.9,1-1.7,2.1-2.3,3.3
				c-1.3,2.3-2,4.8-2.1,7.3c-0.1,1.3,0.1,2.4,0.6,3.5c0.5,1.1,1.3,2,2.3,2.3c1.1,0.4,2.4,0.3,3.6-0.1c1.3-0.4,2.5-1,3.7-1.8l1.4-1
				l0.1,1.6c0.1,1.8,0.3,3.5,0.8,5.2c0.5,1.7,1.3,3.2,2.5,4.4c1.2,1.2,2.8,2.1,4.6,2.4c1.8,0.3,3.7,0.1,5.5-0.4
				c0.9-0.3,1.8-0.7,2.6-1.1c0.4-0.2,0.8-0.4,1.2-0.7l0.2-0.1l0,0l0.1,0c0.1-0.1,0.2-0.1,0.3-0.2c0.2-0.1,0.3-0.3,0.5-0.4
				c0.7-0.6,1.3-1.3,1.7-2c0.4-0.8,0.8-1.6,0.9-2.4s0.1-1.6-0.1-2.4s-0.8-1.5-1.4-2c-0.7-0.5-1.6-0.9-2.6-1c-1-0.2-2-0.1-3,0
				c1-0.3,2-0.5,3.1-0.5c1.1,0,2.2,0.2,3.1,0.7s1.7,1.3,2.1,2.3c0.4,0.9,0.5,2,0.4,3c-0.2,2-1.4,3.9-2.9,5.4
				c-0.2,0.2-0.4,0.4-0.6,0.6c-0.1,0.1-0.2,0.1-0.3,0.2l-0.2,0.1l-0.2,0.1c-0.4,0.3-0.9,0.6-1.3,0.9c-0.9,0.5-1.9,1-3,1.3
				c-2.1,0.7-4.4,0.9-6.5,0.5c-1.1-0.2-2.2-0.6-3.1-1.1c-1-0.5-1.8-1.2-2.5-1.9c-1.4-1.4-2.4-3.2-2.9-5.1c-0.6-1.8-0.8-3.7-0.9-5.6
				l1.5,0.6c-1.3,0.8-2.6,1.5-4.2,2c-0.8,0.2-1.6,0.4-2.5,0.5c-0.8,0-1.7-0.1-2.5-0.4c-0.8-0.3-1.6-0.8-2.1-1.4
				c-0.6-0.6-1-1.2-1.3-1.9c-0.6-1.3-0.8-2.8-0.8-4.2c0.1-2.8,1-5.6,2.3-8c0.7-1.3,1.5-2.4,2.4-3.5c0.5-0.6,1-1.1,1.5-1.6
				c0.3-0.2,0.6-0.5,0.8-0.8l0.4-0.3l0.5-0.4c2.3-1.9,5-3.4,7.9-4.4c1.5-0.5,3-0.8,4.6-0.9c1.6-0.1,3.2,0,4.7,0.4
				c1.5,0.4,2.9,1,4.2,1.9c1.2,0.9,2.3,2,3.1,3.1c0.8,1.2,1.4,2.5,1.7,3.9c0.3,1.4,0.5,2.7,0.5,4.1l-1.5-0.7c1.7-1,3.4-1.8,5.3-2.5
				c1.9-0.7,3.8-1.3,5.8-1.6c2-0.3,4-0.3,6,0c2,0.3,3.9,1,5.6,1.9c1.7,0.9,3.1,2.2,4.4,3.6c1.2,1.4,2.2,3,2.9,4.6
				c1.4,3.3,1.9,6.9,1.4,10.5c0,0.4-0.1,0.9-0.2,1.3c-0.1,0.4-0.3,0.9-0.4,1.3c-0.3,0.9-0.6,1.7-0.9,2.6c-0.7,1.7-1.5,3.3-2.6,4.8
				c-1,1.5-2.3,3-3.7,4.3c-1.4,1.3-3.1,2.4-4.9,3.3c-1.9,0.8-3.9,1.3-5.9,1.4c-2,0.1-4.1-0.1-6-0.5c-1.9-0.5-3.7-1.1-5.4-2
				c-1.7-0.8-3.3-1.8-4.8-2.8l1.6-0.9c0.1,0.9,0.3,1.8,0.3,2.8c0.1,0.9,0.1,1.9,0.1,2.8c-0.1,1.9-0.3,3.8-0.9,5.6s-1.5,3.7-2.9,5.2
				c-0.7,0.8-1.5,1.5-2.5,2c-1,0.6-2.1,1-3.2,1.2c-1.1,0.2-2.3,0.2-3.4-0.1c-1.1-0.2-2.1-0.7-3-1.3c-1.8-1.1-3-2.8-3.9-4.5
				c-0.8-1.7-1.3-3.6-1.6-5.4c-0.2-0.9-0.3-1.9-0.3-2.8c-0.1-1,0-1.9,0-2.8l1.6,0.6c-1,0.9-2.1,1.8-3.3,2.6
				c-1.1,0.8-2.4,1.6-3.7,2.2s-2.6,1.2-4.1,1.6c-1.5,0.4-2.9,0.6-4.4,0.6c-1.5,0-3-0.3-4.4-0.8c-1.4-0.5-2.6-1.3-3.7-2.2
				c-1.1-0.9-1.9-2-2.6-3.1c-0.7-1.1-1.2-2.4-1.6-3.6c-0.7-2.6-0.6-5.2,0-7.8c0.6-2.6,1.8-5,3.5-7.2c1.6-2.2,3.7-4.1,6-5.7
				c1.1-0.8,2.4-1.6,3.6-2.2l1-0.5l1-0.5c0.6-0.3,1.3-0.6,1.9-0.8L584.8,432.9z"/>
		</g>
	</g>
	<g id="Wing__x28_Left_x29_">
		<g id="XMLID_95_">
			<path id="XMLID_59_" class="st12" d="M542,507c157.3-73.8,125.8-140.8,79.8-120.5c47.7-59,75.5-99.2,87.9-139.4
				c10.9-35.5-11.4-39.4-26-34.4c-18.3,6.2-36.2,19.3-63.3,58.5c36.7-85.7,60.1-143.5,68.7-177.8c11.3-45.6-11.5-47.8-40.3-24.8
				c-30.7,24.5-45,58.1-59.3,105.8C609,33.7,584.5,14.7,556,52c-28.4,37.2-40.3,86.3-40.4,160c-0.1,103.2,15.9,156.5-1.6,245"/>
			<path id="XMLID_58_" class="st2" d="M542,507c3.8-2.4,7.6-4.6,11.4-6.9l5.7-3.4c1.9-1.2,3.8-2.3,5.6-3.5c3.8-2.3,7.5-4.6,11.2-7
				c3.7-2.4,7.4-4.8,11.1-7.2c3.7-2.4,7.3-4.9,10.9-7.4c3.6-2.5,7.1-5.1,10.5-7.8c1.7-1.3,3.4-2.7,5.1-4.1c1.7-1.4,3.4-2.7,5.1-4.1
				c3.4-2.7,6.6-5.6,9.7-8.5c3.2-2.9,6.1-6,9-9.2c2.8-3.2,5.5-6.5,7.9-10c2.4-3.5,4.5-7.1,6.2-10.8c0.4-0.9,0.8-1.9,1.2-2.8
				c0.3-0.9,0.7-1.9,0.9-2.8c0.6-1.9,1-3.8,1.2-5.7c0.4-3.8,0-7.5-1.5-10.5c-1.5-3-4-5.3-7.2-6.6c-3.2-1.3-7-1.7-10.8-1.3
				c-1.9,0.2-3.8,0.6-5.7,1.1c-1.9,0.5-3.8,1.2-5.6,2l-16.6,7.1l11.3-14.1l0,0c16.3-20.2,32.3-40.5,47-61.7
				c7.3-10.6,14.4-21.4,20.7-32.5c6.3-11.1,11.9-22.6,16.3-34.5c1.1-3,2.1-6,3-9c0.2-0.7,0.5-1.6,0.7-2.2c0.2-0.7,0.4-1.4,0.6-2.2
				c0.4-1.5,0.7-3,0.9-4.4c0.5-2.9,0.7-5.9,0.5-8.6c-0.2-2.7-0.8-5.3-2-7.3c-1.2-2-2.9-3.5-5.1-4.5c-2.2-1-4.9-1.4-7.6-1.3
				c-1.4,0-2.8,0.2-4.1,0.5c-0.7,0.1-1.4,0.3-2.1,0.5c-0.3,0.1-0.7,0.2-1,0.3l-0.9,0.3l-2.3,0.8l-1.1,0.4l-1,0.4l-2,0.9l-2.1,1
				c-5.5,2.7-10.6,6.1-15.4,10c-4.8,3.9-9.3,8.3-13.6,13c-4.2,4.7-8.4,9.6-12.2,14.7c-2,2.5-3.8,5.1-5.8,7.7
				c-1.9,2.6-3.7,5.2-5.6,7.8l-24.2,34l16.4-38.3c6.5-15.1,12.9-30.2,19.3-45.4l9.5-22.7c3.1-7.6,6.2-15.2,9.3-22.8
				c1.5-3.8,3.1-7.6,4.6-11.4c1.5-3.8,3-7.6,4.5-11.5c3-7.6,5.8-15.3,8.6-23c2.7-7.7,5.4-15.4,7.9-23.2c1.2-3.9,2.4-7.8,3.5-11.7
				l1.5-5.8c0.5-2,0.9-3.9,1.3-5.8c0.7-3.9,1.3-7.7,1.4-11.5c0.1-3.7-0.2-7.5-1.2-10.4c-0.5-1.5-1.3-2.7-2.2-3.5
				c-0.9-0.8-1.9-1.4-3.2-1.7c-2.6-0.6-6.2,0-9.6,1.2c-6.9,2.5-13.6,7-19.7,11.9l-2.4,2c-0.8,0.7-1.5,1.3-2.2,1.9
				c-0.7,0.6-1.5,1.3-2.2,2c-0.7,0.7-1.5,1.3-2.2,2c-2.8,2.8-5.6,5.6-8.1,8.7c-5.1,6.1-9.7,12.6-13.8,19.5
				c-4,6.9-7.6,14.1-10.8,21.5c-3.2,7.4-6.1,15-8.7,22.7c-2.7,7.7-5.1,15.5-7.5,23.3L577,230.8l7.9-57.1l0,0
				c1.7-12.1,3.2-24.2,4.4-36.4c1.2-12.1,2.1-24.3,2.5-36.4c0.3-12.1,0.3-24.3-1.2-36c-0.8-5.8-1.9-11.7-4-16.7
				c-1-2.5-2.3-4.8-3.8-6.3c-0.7-0.8-1.5-1.3-2.3-1.6c-0.8-0.3-1.6-0.4-2.5-0.4c-1.8,0.1-4.1,1.1-6.3,2.6c-2.2,1.5-4.3,3.3-6.2,5.4
				c-2,2-3.9,4.3-5.6,6.6l-2.7,3.6l-2.5,3.6c-6.7,9.9-12.3,20.5-16.7,31.6c-4.4,11.1-7.8,22.7-10.3,34.5
				c-2.5,11.8-4.2,23.8-5.4,35.9c-1.2,12.1-1.8,24.2-2,36.4c-0.2,12.2-0.1,24.4,0.2,36.6c0.3,12.2,0.8,24.4,1.4,36.7
				c0.7,12.2,1.5,24.4,2.2,36.7c0.8,12.3,1.6,24.5,2,36.9c0.2,6.2,0.4,12.3,0.5,18.5c0.1,3.1,0,6.2,0.1,9.3
				c-0.1,3.1-0.1,6.2-0.2,9.3c-0.5,12.4-1.6,24.8-3.7,37c-2.1,12.2-4.8,24.3-8.7,36c0.9-12.3,1.9-24.5,2.5-36.7
				c0.3-6.1,0.6-12.2,0.8-18.3c0.2-6.1,0.3-12.2,0.4-18.2c0.2-12.2,0.1-24.3-0.5-36.5c-0.6-12.2-1.3-24.4-2.1-36.7
				c-0.8-12.2-1.6-24.5-2.3-36.8c-0.7-12.3-1.2-24.6-1.5-36.9c-0.3-12.3-0.4-24.6-0.2-37c0.2-12.4,0.9-24.7,2-37.1
				c1.2-12.4,2.9-24.7,5.5-36.9c2.6-12.2,6.1-24.3,10.7-36c4.6-11.7,10.5-22.9,17.6-33.4l2.8-3.9l2.8-3.8c2-2.5,4-5,6.3-7.4
				c2.3-2.4,4.8-4.6,7.7-6.6c1.5-1,3-1.9,4.8-2.6c1.8-0.7,3.7-1.3,5.9-1.5c2.1-0.2,4.5,0.2,6.5,1c2.1,0.9,3.8,2.2,5.2,3.6
				c2.8,2.9,4.5,6.1,5.8,9.3c2.5,6.3,3.7,12.7,4.5,19c1.6,12.6,1.7,25.1,1.3,37.5c-0.4,12.4-1.3,24.7-2.5,37
				c-1.2,12.3-2.7,24.5-4.4,36.7l0,0L585,173c2.4-7.9,4.9-15.8,7.6-23.7c2.7-7.8,5.6-15.7,9-23.3c3.3-7.7,7-15.2,11.3-22.5
				c4.3-7.3,9.2-14.3,14.7-20.8c2.7-3.2,5.7-6.3,8.7-9.3c0.8-0.7,1.5-1.5,2.3-2.2c0.8-0.7,1.6-1.4,2.4-2.1c0.8-0.7,1.6-1.4,2.4-2.1
				l2.4-2c3.4-2.7,6.8-5.2,10.5-7.5c3.7-2.3,7.6-4.3,11.9-5.9c2.2-0.8,4.4-1.4,6.8-1.7c2.4-0.3,5-0.4,7.7,0.2c2.7,0.6,5.5,2,7.5,4
				c2.1,2,3.4,4.5,4.3,6.9c1.7,4.8,1.9,9.4,1.8,13.9c-0.2,4.4-0.8,8.7-1.6,12.9c-0.4,2.1-0.9,4.3-1.4,6.2l-1.6,6.1
				c-1.1,4-2.3,8-3.5,12c-2.5,7.9-5.2,15.7-8,23.5c-2.8,7.8-5.7,15.5-8.7,23.2c-1.5,3.9-3,7.7-4.5,11.5c-1.5,3.8-3,7.7-4.6,11.5
				c-3.1,7.6-6.2,15.3-9.3,22.9l-9.5,22.8c-6.4,15.2-12.8,30.3-19.3,45.4l-7.8-4.3c1.9-2.7,3.8-5.4,5.7-8c2-2.6,3.9-5.3,5.9-7.9
				c4-5.2,8.3-10.3,12.7-15.2c4.5-4.9,9.3-9.6,14.5-13.9c5.2-4.3,10.9-8.2,17.1-11.2l2.3-1.1l2.4-1l1.2-0.5l1.1-0.4l2.3-0.8l0.7-0.3
				l0.7-0.2c0.4-0.1,0.9-0.3,1.3-0.4c0.9-0.2,1.8-0.4,2.7-0.6c1.8-0.3,3.7-0.5,5.5-0.6c3.7-0.1,7.7,0.4,11.4,2
				c1.9,0.8,3.7,1.9,5.3,3.3c1.6,1.4,3,3.1,4,4.8c2.1,3.6,3,7.5,3.3,11.2c0.3,3.7-0.1,7.3-0.6,10.8c-0.3,1.7-0.7,3.4-1.1,5.1
				c-0.2,0.8-0.4,1.7-0.7,2.5c-0.2,0.9-0.4,1.5-0.7,2.4c-1,3.2-2,6.3-3.2,9.4c-4.6,12.5-10.4,24.4-16.9,35.9
				c-6.5,11.5-13.6,22.5-21.1,33.2c-15,21.5-31.1,41.9-47.4,62.2l0,0l-5.3-6.9c2.2-1,4.5-1.8,6.8-2.5c2.4-0.6,4.8-1.1,7.3-1.4
				c5-0.5,10.2-0.1,15.2,2c2.5,1,4.8,2.5,6.9,4.3c2.1,1.9,3.7,4.1,5,6.6c2.4,5,3,10.4,2.4,15.4c-0.3,2.5-0.8,4.9-1.5,7.3
				c-0.3,1.2-0.8,2.3-1.1,3.5c-0.5,1.1-0.9,2.2-1.4,3.3c-2,4.4-4.3,8.4-7,12.2c-2.6,3.8-5.5,7.4-8.6,10.8c-3,3.4-6.2,6.7-9.5,9.8
				c-3.3,3.1-6.7,6.1-10.2,8.9c-1.7,1.4-3.5,2.8-5.3,4.2c-1.8,1.3-3.7,2.6-5.5,3.9c-1.9,1.3-3.7,2.5-5.6,3.8
				c-1.9,1.2-3.7,2.5-5.6,3.7c-1.9,1.2-3.8,2.4-5.7,3.5c-1.9,1.2-3.9,2.3-5.8,3.4c-3.9,2.2-7.8,4.3-11.8,6.3c-2,1-4,2-6,2.9
				c-2,1-4,1.9-6.1,2.8c-2,0.9-4.1,1.8-6.1,2.7c-2.1,0.9-4.1,1.7-6.2,2.5C550.4,504,546.2,505.6,542,507z"/>
		</g>
		<g id="XMLID_99_">
			<defs>
				<path id="XMLID_127_" d="M542,507c157.3-73.8,125.8-140.8,79.8-120.5c47.7-59,75.5-99.2,87.9-139.4c10.9-35.5-11.4-39.4-26-34.4
					c-18.3,6.2-36.2,19.3-63.3,58.5c36.7-85.7,60.1-143.5,68.7-177.8c11.3-45.6-11.5-47.8-40.3-24.8c-30.7,24.5-45,58.1-59.3,105.8
					C609,33.7,584.5,14.7,556,52c-28.4,37.2-40.3,86.3-40.4,160c-0.1,103.2,15.9,156.5-1.6,245"/>
			</defs>
			<clipPath id="XMLID_00000116210421846930990740000005189679386998937230_">
				<use xlink:href="#XMLID_127_"  style="overflow:visible;"/>
			</clipPath>
			
				<path id="XMLID_103_" style="clip-path:url(#XMLID_00000116210421846930990740000005189679386998937230_);fill:none;stroke:#6BABDA;stroke-width:9;stroke-miterlimit:40;" d="
				M520.6,326c-8.2-114,57.9-116.2,45.9,28.1c52.8-103.8,105.6-5.1,3.3,84.4c19.2-4,29.8-1.3,34.8,9.2c4.5,9.5,1.1,24.3-20.5,38.6"
				/>
		</g>
	</g>
</g>
</svg>
